ISO-10303-21;
HEADER;
FILE_DESCRIPTION(('FreeCAD Model'),'2;1');
FILE_NAME('Open CASCADE Shape Model','2025-10-13T14:28:43',('Author'),(
    ''),'Open CASCADE STEP processor 7.7','FreeCAD','Unknown');
FILE_SCHEMA(('AUTOMOTIVE_DESIGN { 1 0 10303 214 1 1 1 1 }'));
ENDSEC;
DATA;
#1 = APPLICATION_PROTOCOL_DEFINITION('international standard',
  'automotive_design',2000,#2);
#2 = APPLICATION_CONTEXT(
  'core data for automotive mechanical design processes');
#3 = SHAPE_DEFINITION_REPRESENTATION(#4,#10);
#4 = PRODUCT_DEFINITION_SHAPE('','',#5);
#5 = PRODUCT_DEFINITION('design','',#6,#9);
#6 = PRODUCT_DEFINITION_FORMATION('','',#7);
#7 = PRODUCT('Body','Body','',(#8));
#8 = PRODUCT_CONTEXT('',#2,'mechanical');
#9 = PRODUCT_DEFINITION_CONTEXT('part definition',#2,'design');
#10 = ADVANCED_BREP_SHAPE_REPRESENTATION('',(#11,#15),#1903);
#11 = AXIS2_PLACEMENT_3D('',#12,#13,#14);
#12 = CARTESIAN_POINT('',(0.,0.,0.));
#13 = DIRECTION('',(0.,0.,1.));
#14 = DIRECTION('',(1.,0.,-0.));
#15 = MANIFOLD_SOLID_BREP('',#16);
#16 = CLOSED_SHELL('',(#17,#105,#152,#176,#277,#301,#325,#349,#407,#440,
    #457,#531,#580,#597,#648,#688,#744,#777,#802,#827,#883,#969,#1018,
    #1035,#1052,#1078,#1090,#1107,#1124,#1136,#1153,#1170,#1196,#1213,
    #1225,#1267,#1309,#1340,#1376,#1412,#1429,#1577,#1654,#1802,#1879));
#17 = ADVANCED_FACE('',(#18),#100,.T.);
#18 = FACE_BOUND('',#19,.T.);
#19 = EDGE_LOOP('',(#20,#30,#38,#46,#54,#62,#70,#78,#86,#94));
#20 = ORIENTED_EDGE('',*,*,#21,.F.);
#21 = EDGE_CURVE('',#22,#24,#26,.T.);
#22 = VERTEX_POINT('',#23);
#23 = CARTESIAN_POINT('',(12.25,-2.,-3.));
#24 = VERTEX_POINT('',#25);
#25 = CARTESIAN_POINT('',(12.25,-2.,3.));
#26 = LINE('',#27,#28);
#27 = CARTESIAN_POINT('',(12.25,-2.,-3.));
#28 = VECTOR('',#29,1.);
#29 = DIRECTION('',(0.,2.22044604925E-16,1.));
#30 = ORIENTED_EDGE('',*,*,#31,.T.);
#31 = EDGE_CURVE('',#22,#32,#34,.T.);
#32 = VERTEX_POINT('',#33);
#33 = CARTESIAN_POINT('',(23.5,-2.,-3.));
#34 = LINE('',#35,#36);
#35 = CARTESIAN_POINT('',(-2.,-2.,-3.));
#36 = VECTOR('',#37,1.);
#37 = DIRECTION('',(1.,0.,0.));
#38 = ORIENTED_EDGE('',*,*,#39,.F.);
#39 = EDGE_CURVE('',#40,#32,#42,.T.);
#40 = VERTEX_POINT('',#41);
#41 = CARTESIAN_POINT('',(23.5,-2.,12.));
#42 = LINE('',#43,#44);
#43 = CARTESIAN_POINT('',(23.5,-2.,0.));
#44 = VECTOR('',#45,1.);
#45 = DIRECTION('',(-0.,-0.,-1.));
#46 = ORIENTED_EDGE('',*,*,#47,.F.);
#47 = EDGE_CURVE('',#48,#40,#50,.T.);
#48 = VERTEX_POINT('',#49);
#49 = CARTESIAN_POINT('',(-2.,-2.,12.));
#50 = LINE('',#51,#52);
#51 = CARTESIAN_POINT('',(-2.,-2.,12.));
#52 = VECTOR('',#53,1.);
#53 = DIRECTION('',(1.,0.,0.));
#54 = ORIENTED_EDGE('',*,*,#55,.T.);
#55 = EDGE_CURVE('',#48,#56,#58,.T.);
#56 = VERTEX_POINT('',#57);
#57 = CARTESIAN_POINT('',(-2.,-2.,-3.));
#58 = LINE('',#59,#60);
#59 = CARTESIAN_POINT('',(-2.,-2.,0.));
#60 = VECTOR('',#61,1.);
#61 = DIRECTION('',(-0.,-0.,-1.));
#62 = ORIENTED_EDGE('',*,*,#63,.T.);
#63 = EDGE_CURVE('',#56,#64,#66,.T.);
#64 = VERTEX_POINT('',#65);
#65 = CARTESIAN_POINT('',(9.25,-2.,-3.));
#66 = LINE('',#67,#68);
#67 = CARTESIAN_POINT('',(-2.,-2.,-3.));
#68 = VECTOR('',#69,1.);
#69 = DIRECTION('',(1.,0.,0.));
#70 = ORIENTED_EDGE('',*,*,#71,.F.);
#71 = EDGE_CURVE('',#72,#64,#74,.T.);
#72 = VERTEX_POINT('',#73);
#73 = CARTESIAN_POINT('',(9.25,-2.,3.));
#74 = LINE('',#75,#76);
#75 = CARTESIAN_POINT('',(9.25,-2.,4.));
#76 = VECTOR('',#77,1.);
#77 = DIRECTION('',(0.,-2.22044604925E-16,-1.));
#78 = ORIENTED_EDGE('',*,*,#79,.T.);
#79 = EDGE_CURVE('',#72,#80,#82,.T.);
#80 = VERTEX_POINT('',#81);
#81 = CARTESIAN_POINT('',(10.25,-2.,4.));
#82 = LINE('',#83,#84);
#83 = CARTESIAN_POINT('',(10.25,-2.,4.));
#84 = VECTOR('',#85,1.);
#85 = DIRECTION('',(0.707106781187,0.,0.707106781187));
#86 = ORIENTED_EDGE('',*,*,#87,.F.);
#87 = EDGE_CURVE('',#88,#80,#90,.T.);
#88 = VERTEX_POINT('',#89);
#89 = CARTESIAN_POINT('',(11.25,-2.,4.));
#90 = LINE('',#91,#92);
#91 = CARTESIAN_POINT('',(12.25,-2.,4.));
#92 = VECTOR('',#93,1.);
#93 = DIRECTION('',(-1.,0.,0.));
#94 = ORIENTED_EDGE('',*,*,#95,.F.);
#95 = EDGE_CURVE('',#24,#88,#96,.T.);
#96 = LINE('',#97,#98);
#97 = CARTESIAN_POINT('',(11.25,-2.,4.));
#98 = VECTOR('',#99,1.);
#99 = DIRECTION('',(-0.707106781187,0.,0.707106781187));
#100 = PLANE('',#101);
#101 = AXIS2_PLACEMENT_3D('',#102,#103,#104);
#102 = CARTESIAN_POINT('',(10.75,-2.,4.5));
#103 = DIRECTION('',(-0.,-1.,-0.));
#104 = DIRECTION('',(0.,0.,-1.));
#105 = ADVANCED_FACE('',(#106),#147,.T.);
#106 = FACE_BOUND('',#107,.T.);
#107 = EDGE_LOOP('',(#108,#109,#117,#125,#133,#141));
#108 = ORIENTED_EDGE('',*,*,#21,.T.);
#109 = ORIENTED_EDGE('',*,*,#110,.F.);
#110 = EDGE_CURVE('',#111,#24,#113,.T.);
#111 = VERTEX_POINT('',#112);
#112 = CARTESIAN_POINT('',(12.25,6.661338147751E-16,3.));
#113 = LINE('',#114,#115);
#114 = CARTESIAN_POINT('',(12.25,6.661338147751E-16,3.));
#115 = VECTOR('',#116,1.);
#116 = DIRECTION('',(0.,-1.,2.22044604925E-16));
#117 = ORIENTED_EDGE('',*,*,#118,.F.);
#118 = EDGE_CURVE('',#119,#111,#121,.T.);
#119 = VERTEX_POINT('',#120);
#120 = CARTESIAN_POINT('',(12.25,-2.152936414325E-15,0.));
#121 = LINE('',#122,#123);
#122 = CARTESIAN_POINT('',(12.25,-6.661338147751E-16,-3.));
#123 = VECTOR('',#124,1.);
#124 = DIRECTION('',(0.,2.22044604925E-16,1.));
#125 = ORIENTED_EDGE('',*,*,#126,.T.);
#126 = EDGE_CURVE('',#119,#127,#129,.T.);
#127 = VERTEX_POINT('',#128);
#128 = CARTESIAN_POINT('',(12.25,1.5,0.));
#129 = LINE('',#130,#131);
#130 = CARTESIAN_POINT('',(12.25,20.5,0.));
#131 = VECTOR('',#132,1.);
#132 = DIRECTION('',(0.,1.,0.));
#133 = ORIENTED_EDGE('',*,*,#134,.T.);
#134 = EDGE_CURVE('',#127,#135,#137,.T.);
#135 = VERTEX_POINT('',#136);
#136 = CARTESIAN_POINT('',(12.25,1.5,-3.));
#137 = LINE('',#138,#139);
#138 = CARTESIAN_POINT('',(12.25,1.5,91.855876921403));
#139 = VECTOR('',#140,1.);
#140 = DIRECTION('',(-0.,-0.,-1.));
#141 = ORIENTED_EDGE('',*,*,#142,.T.);
#142 = EDGE_CURVE('',#135,#22,#143,.T.);
#143 = LINE('',#144,#145);
#144 = CARTESIAN_POINT('',(12.25,-6.661338147751E-16,-3.));
#145 = VECTOR('',#146,1.);
#146 = DIRECTION('',(0.,-1.,2.22044604925E-16));
#147 = PLANE('',#148);
#148 = AXIS2_PLACEMENT_3D('',#149,#150,#151);
#149 = CARTESIAN_POINT('',(12.25,-0.535714285714,0.214285714286));
#150 = DIRECTION('',(-1.,-0.,-0.));
#151 = DIRECTION('',(0.,0.,-1.));
#152 = ADVANCED_FACE('',(#153),#171,.F.);
#153 = FACE_BOUND('',#154,.T.);
#154 = EDGE_LOOP('',(#155,#163,#164,#165));
#155 = ORIENTED_EDGE('',*,*,#156,.F.);
#156 = EDGE_CURVE('',#111,#157,#159,.T.);
#157 = VERTEX_POINT('',#158);
#158 = CARTESIAN_POINT('',(11.25,8.881784197001E-16,4.));
#159 = LINE('',#160,#161);
#160 = CARTESIAN_POINT('',(10.538527397261,-1.468355310633E-15,
    4.711472602739));
#161 = VECTOR('',#162,1.);
#162 = DIRECTION('',(-0.707106781187,0.,0.707106781187));
#163 = ORIENTED_EDGE('',*,*,#110,.T.);
#164 = ORIENTED_EDGE('',*,*,#95,.T.);
#165 = ORIENTED_EDGE('',*,*,#166,.F.);
#166 = EDGE_CURVE('',#157,#88,#167,.T.);
#167 = LINE('',#168,#169);
#168 = CARTESIAN_POINT('',(11.25,8.881784197001E-16,4.));
#169 = VECTOR('',#170,1.);
#170 = DIRECTION('',(0.,-1.,2.22044604925E-16));
#171 = PLANE('',#172);
#172 = AXIS2_PLACEMENT_3D('',#173,#174,#175);
#173 = CARTESIAN_POINT('',(11.75,7.771561172376E-16,3.5));
#174 = DIRECTION('',(0.707106781187,1.121270291989E-16,0.707106781187));
#175 = DIRECTION('',(3.173651976171E-17,1.,-1.903080851633E-16));
#176 = ADVANCED_FACE('',(#177,#250,#261),#272,.F.);
#177 = FACE_BOUND('',#178,.F.);
#178 = EDGE_LOOP('',(#179,#187,#195,#203,#211,#219,#227,#233,#234,#242,
    #248,#249));
#179 = ORIENTED_EDGE('',*,*,#180,.T.);
#180 = EDGE_CURVE('',#32,#181,#183,.T.);
#181 = VERTEX_POINT('',#182);
#182 = CARTESIAN_POINT('',(23.5,84.,-3.));
#183 = LINE('',#184,#185);
#184 = CARTESIAN_POINT('',(23.5,-2.,-3.));
#185 = VECTOR('',#186,1.);
#186 = DIRECTION('',(0.,1.,0.));
#187 = ORIENTED_EDGE('',*,*,#188,.T.);
#188 = EDGE_CURVE('',#181,#189,#191,.T.);
#189 = VERTEX_POINT('',#190);
#190 = CARTESIAN_POINT('',(12.25,84.,-3.));
#191 = LINE('',#192,#193);
#192 = CARTESIAN_POINT('',(23.5,84.,-3.));
#193 = VECTOR('',#194,1.);
#194 = DIRECTION('',(-1.,0.,0.));
#195 = ORIENTED_EDGE('',*,*,#196,.F.);
#196 = EDGE_CURVE('',#197,#189,#199,.T.);
#197 = VERTEX_POINT('',#198);
#198 = CARTESIAN_POINT('',(12.25,80.5,-3.));
#199 = LINE('',#200,#201);
#200 = CARTESIAN_POINT('',(12.25,60.75,-3.));
#201 = VECTOR('',#202,1.);
#202 = DIRECTION('',(0.,1.,0.));
#203 = ORIENTED_EDGE('',*,*,#204,.F.);
#204 = EDGE_CURVE('',#205,#197,#207,.T.);
#205 = VERTEX_POINT('',#206);
#206 = CARTESIAN_POINT('',(9.25,80.5,-3.));
#207 = LINE('',#208,#209);
#208 = CARTESIAN_POINT('',(10.,80.5,-3.));
#209 = VECTOR('',#210,1.);
#210 = DIRECTION('',(1.,0.,0.));
#211 = ORIENTED_EDGE('',*,*,#212,.F.);
#212 = EDGE_CURVE('',#213,#205,#215,.T.);
#213 = VERTEX_POINT('',#214);
#214 = CARTESIAN_POINT('',(9.25,84.,-3.));
#215 = LINE('',#216,#217);
#216 = CARTESIAN_POINT('',(9.25,84.,-3.));
#217 = VECTOR('',#218,1.);
#218 = DIRECTION('',(0.,-1.,2.22044604925E-16));
#219 = ORIENTED_EDGE('',*,*,#220,.T.);
#220 = EDGE_CURVE('',#213,#221,#223,.T.);
#221 = VERTEX_POINT('',#222);
#222 = CARTESIAN_POINT('',(-2.,84.,-3.));
#223 = LINE('',#224,#225);
#224 = CARTESIAN_POINT('',(23.5,84.,-3.));
#225 = VECTOR('',#226,1.);
#226 = DIRECTION('',(-1.,0.,0.));
#227 = ORIENTED_EDGE('',*,*,#228,.T.);
#228 = EDGE_CURVE('',#221,#56,#229,.T.);
#229 = LINE('',#230,#231);
#230 = CARTESIAN_POINT('',(-2.,84.,-3.));
#231 = VECTOR('',#232,1.);
#232 = DIRECTION('',(0.,-1.,0.));
#233 = ORIENTED_EDGE('',*,*,#63,.T.);
#234 = ORIENTED_EDGE('',*,*,#235,.F.);
#235 = EDGE_CURVE('',#236,#64,#238,.T.);
#236 = VERTEX_POINT('',#237);
#237 = CARTESIAN_POINT('',(9.25,1.5,-3.));
#238 = LINE('',#239,#240);
#239 = CARTESIAN_POINT('',(9.25,21.25,-3.));
#240 = VECTOR('',#241,1.);
#241 = DIRECTION('',(0.,-1.,0.));
#242 = ORIENTED_EDGE('',*,*,#243,.F.);
#243 = EDGE_CURVE('',#135,#236,#244,.T.);
#244 = LINE('',#245,#246);
#245 = CARTESIAN_POINT('',(11.5,1.5,-3.));
#246 = VECTOR('',#247,1.);
#247 = DIRECTION('',(-1.,0.,0.));
#248 = ORIENTED_EDGE('',*,*,#142,.T.);
#249 = ORIENTED_EDGE('',*,*,#31,.T.);
#250 = FACE_BOUND('',#251,.F.);
#251 = EDGE_LOOP('',(#252));
#252 = ORIENTED_EDGE('',*,*,#253,.F.);
#253 = EDGE_CURVE('',#254,#254,#256,.T.);
#254 = VERTEX_POINT('',#255);
#255 = CARTESIAN_POINT('',(12.375,23.428571428571,-3.));
#256 = CIRCLE('',#257,1.625);
#257 = AXIS2_PLACEMENT_3D('',#258,#259,#260);
#258 = CARTESIAN_POINT('',(10.75,23.428571428571,-3.));
#259 = DIRECTION('',(0.,0.,1.));
#260 = DIRECTION('',(1.,0.,0.));
#261 = FACE_BOUND('',#262,.F.);
#262 = EDGE_LOOP('',(#263));
#263 = ORIENTED_EDGE('',*,*,#264,.F.);
#264 = EDGE_CURVE('',#265,#265,#267,.T.);
#265 = VERTEX_POINT('',#266);
#266 = CARTESIAN_POINT('',(12.375,58.571428571429,-3.));
#267 = CIRCLE('',#268,1.625);
#268 = AXIS2_PLACEMENT_3D('',#269,#270,#271);
#269 = CARTESIAN_POINT('',(10.75,58.571428571429,-3.));
#270 = DIRECTION('',(0.,0.,1.));
#271 = DIRECTION('',(1.,0.,0.));
#272 = PLANE('',#273);
#273 = AXIS2_PLACEMENT_3D('',#274,#275,#276);
#274 = CARTESIAN_POINT('',(10.75,41.,-3.));
#275 = DIRECTION('',(0.,0.,1.));
#276 = DIRECTION('',(1.,0.,0.));
#277 = ADVANCED_FACE('',(#278),#296,.T.);
#278 = FACE_BOUND('',#279,.T.);
#279 = EDGE_LOOP('',(#280,#288,#289,#290));
#280 = ORIENTED_EDGE('',*,*,#281,.F.);
#281 = EDGE_CURVE('',#157,#282,#284,.T.);
#282 = VERTEX_POINT('',#283);
#283 = CARTESIAN_POINT('',(10.25,8.881784197001E-16,4.));
#284 = LINE('',#285,#286);
#285 = CARTESIAN_POINT('',(12.25,8.881784197001E-16,4.));
#286 = VECTOR('',#287,1.);
#287 = DIRECTION('',(-1.,0.,0.));
#288 = ORIENTED_EDGE('',*,*,#166,.T.);
#289 = ORIENTED_EDGE('',*,*,#87,.T.);
#290 = ORIENTED_EDGE('',*,*,#291,.F.);
#291 = EDGE_CURVE('',#282,#80,#292,.T.);
#292 = LINE('',#293,#294);
#293 = CARTESIAN_POINT('',(10.25,8.881784197001E-16,4.));
#294 = VECTOR('',#295,1.);
#295 = DIRECTION('',(0.,-1.,2.22044604925E-16));
#296 = PLANE('',#297);
#297 = AXIS2_PLACEMENT_3D('',#298,#299,#300);
#298 = CARTESIAN_POINT('',(12.25,8.881784197001E-16,4.));
#299 = DIRECTION('',(-0.,-2.22044604925E-16,-1.));
#300 = DIRECTION('',(-1.,0.,0.));
#301 = ADVANCED_FACE('',(#302),#320,.T.);
#302 = FACE_BOUND('',#303,.T.);
#303 = EDGE_LOOP('',(#304,#305,#306,#314));
#304 = ORIENTED_EDGE('',*,*,#39,.T.);
#305 = ORIENTED_EDGE('',*,*,#180,.T.);
#306 = ORIENTED_EDGE('',*,*,#307,.T.);
#307 = EDGE_CURVE('',#181,#308,#310,.T.);
#308 = VERTEX_POINT('',#309);
#309 = CARTESIAN_POINT('',(23.5,84.,12.));
#310 = LINE('',#311,#312);
#311 = CARTESIAN_POINT('',(23.5,84.,0.));
#312 = VECTOR('',#313,1.);
#313 = DIRECTION('',(0.,0.,1.));
#314 = ORIENTED_EDGE('',*,*,#315,.F.);
#315 = EDGE_CURVE('',#40,#308,#316,.T.);
#316 = LINE('',#317,#318);
#317 = CARTESIAN_POINT('',(23.5,-2.,12.));
#318 = VECTOR('',#319,1.);
#319 = DIRECTION('',(0.,1.,0.));
#320 = PLANE('',#321);
#321 = AXIS2_PLACEMENT_3D('',#322,#323,#324);
#322 = CARTESIAN_POINT('',(23.5,41.,4.5));
#323 = DIRECTION('',(1.,0.,0.));
#324 = DIRECTION('',(0.,0.,1.));
#325 = ADVANCED_FACE('',(#326),#344,.F.);
#326 = FACE_BOUND('',#327,.F.);
#327 = EDGE_LOOP('',(#328,#336,#342,#343));
#328 = ORIENTED_EDGE('',*,*,#329,.F.);
#329 = EDGE_CURVE('',#330,#282,#332,.T.);
#330 = VERTEX_POINT('',#331);
#331 = CARTESIAN_POINT('',(9.25,6.661338147751E-16,3.));
#332 = LINE('',#333,#334);
#333 = CARTESIAN_POINT('',(10.961472602741,-1.468355310633E-15,
    4.711472602741));
#334 = VECTOR('',#335,1.);
#335 = DIRECTION('',(0.707106781187,0.,0.707106781187));
#336 = ORIENTED_EDGE('',*,*,#337,.T.);
#337 = EDGE_CURVE('',#330,#72,#338,.T.);
#338 = LINE('',#339,#340);
#339 = CARTESIAN_POINT('',(9.25,6.661338147751E-16,3.));
#340 = VECTOR('',#341,1.);
#341 = DIRECTION('',(0.,-1.,2.22044604925E-16));
#342 = ORIENTED_EDGE('',*,*,#79,.T.);
#343 = ORIENTED_EDGE('',*,*,#291,.F.);
#344 = PLANE('',#345);
#345 = AXIS2_PLACEMENT_3D('',#346,#347,#348);
#346 = CARTESIAN_POINT('',(9.75,7.771561172376E-16,3.5));
#347 = DIRECTION('',(-0.707106781187,1.681905437983E-16,0.707106781187)
  );
#348 = DIRECTION('',(-7.906371588698E-18,-1.,2.299509765137E-16));
#349 = ADVANCED_FACE('',(#350,#368),#402,.T.);
#350 = FACE_BOUND('',#351,.T.);
#351 = EDGE_LOOP('',(#352,#360,#361,#362));
#352 = ORIENTED_EDGE('',*,*,#353,.T.);
#353 = EDGE_CURVE('',#354,#48,#356,.T.);
#354 = VERTEX_POINT('',#355);
#355 = CARTESIAN_POINT('',(-2.,84.,12.));
#356 = LINE('',#357,#358);
#357 = CARTESIAN_POINT('',(-2.,84.,12.));
#358 = VECTOR('',#359,1.);
#359 = DIRECTION('',(0.,-1.,0.));
#360 = ORIENTED_EDGE('',*,*,#47,.T.);
#361 = ORIENTED_EDGE('',*,*,#315,.T.);
#362 = ORIENTED_EDGE('',*,*,#363,.T.);
#363 = EDGE_CURVE('',#308,#354,#364,.T.);
#364 = LINE('',#365,#366);
#365 = CARTESIAN_POINT('',(23.5,84.,12.));
#366 = VECTOR('',#367,1.);
#367 = DIRECTION('',(-1.,0.,0.));
#368 = FACE_BOUND('',#369,.F.);
#369 = EDGE_LOOP('',(#370,#380,#388,#396));
#370 = ORIENTED_EDGE('',*,*,#371,.T.);
#371 = EDGE_CURVE('',#372,#374,#376,.T.);
#372 = VERTEX_POINT('',#373);
#373 = CARTESIAN_POINT('',(21.5,0.,12.));
#374 = VERTEX_POINT('',#375);
#375 = CARTESIAN_POINT('',(21.5,82.,12.));
#376 = LINE('',#377,#378);
#377 = CARTESIAN_POINT('',(21.5,0.,12.));
#378 = VECTOR('',#379,1.);
#379 = DIRECTION('',(0.,1.,0.));
#380 = ORIENTED_EDGE('',*,*,#381,.T.);
#381 = EDGE_CURVE('',#374,#382,#384,.T.);
#382 = VERTEX_POINT('',#383);
#383 = CARTESIAN_POINT('',(0.,82.,12.));
#384 = LINE('',#385,#386);
#385 = CARTESIAN_POINT('',(21.5,82.,12.));
#386 = VECTOR('',#387,1.);
#387 = DIRECTION('',(-1.,0.,0.));
#388 = ORIENTED_EDGE('',*,*,#389,.T.);
#389 = EDGE_CURVE('',#382,#390,#392,.T.);
#390 = VERTEX_POINT('',#391);
#391 = CARTESIAN_POINT('',(0.,0.,12.));
#392 = LINE('',#393,#394);
#393 = CARTESIAN_POINT('',(0.,82.,12.));
#394 = VECTOR('',#395,1.);
#395 = DIRECTION('',(0.,-1.,0.));
#396 = ORIENTED_EDGE('',*,*,#397,.T.);
#397 = EDGE_CURVE('',#390,#372,#398,.T.);
#398 = LINE('',#399,#400);
#399 = CARTESIAN_POINT('',(0.,0.,12.));
#400 = VECTOR('',#401,1.);
#401 = DIRECTION('',(1.,0.,0.));
#402 = PLANE('',#403);
#403 = AXIS2_PLACEMENT_3D('',#404,#405,#406);
#404 = CARTESIAN_POINT('',(10.75,41.,12.));
#405 = DIRECTION('',(0.,0.,1.));
#406 = DIRECTION('',(1.,0.,0.));
#407 = ADVANCED_FACE('',(#408),#435,.T.);
#408 = FACE_BOUND('',#409,.T.);
#409 = EDGE_LOOP('',(#410,#418,#419,#420,#421,#429));
#410 = ORIENTED_EDGE('',*,*,#411,.F.);
#411 = EDGE_CURVE('',#330,#412,#414,.T.);
#412 = VERTEX_POINT('',#413);
#413 = CARTESIAN_POINT('',(9.25,-2.152936414325E-15,0.));
#414 = LINE('',#415,#416);
#415 = CARTESIAN_POINT('',(9.25,8.881784197001E-16,4.));
#416 = VECTOR('',#417,1.);
#417 = DIRECTION('',(0.,-2.22044604925E-16,-1.));
#418 = ORIENTED_EDGE('',*,*,#337,.T.);
#419 = ORIENTED_EDGE('',*,*,#71,.T.);
#420 = ORIENTED_EDGE('',*,*,#235,.F.);
#421 = ORIENTED_EDGE('',*,*,#422,.F.);
#422 = EDGE_CURVE('',#423,#236,#425,.T.);
#423 = VERTEX_POINT('',#424);
#424 = CARTESIAN_POINT('',(9.25,1.5,0.));
#425 = LINE('',#426,#427);
#426 = CARTESIAN_POINT('',(9.25,1.5,91.855876921403));
#427 = VECTOR('',#428,1.);
#428 = DIRECTION('',(-0.,-0.,-1.));
#429 = ORIENTED_EDGE('',*,*,#430,.T.);
#430 = EDGE_CURVE('',#423,#412,#431,.T.);
#431 = LINE('',#432,#433);
#432 = CARTESIAN_POINT('',(9.25,21.25,0.));
#433 = VECTOR('',#434,1.);
#434 = DIRECTION('',(0.,-1.,0.));
#435 = PLANE('',#436);
#436 = AXIS2_PLACEMENT_3D('',#437,#438,#439);
#437 = CARTESIAN_POINT('',(9.25,-0.535714285714,0.214285714286));
#438 = DIRECTION('',(1.,0.,0.));
#439 = DIRECTION('',(0.,0.,1.));
#440 = ADVANCED_FACE('',(#441),#452,.T.);
#441 = FACE_BOUND('',#442,.T.);
#442 = EDGE_LOOP('',(#443,#444,#445,#446));
#443 = ORIENTED_EDGE('',*,*,#228,.T.);
#444 = ORIENTED_EDGE('',*,*,#55,.F.);
#445 = ORIENTED_EDGE('',*,*,#353,.F.);
#446 = ORIENTED_EDGE('',*,*,#447,.F.);
#447 = EDGE_CURVE('',#221,#354,#448,.T.);
#448 = LINE('',#449,#450);
#449 = CARTESIAN_POINT('',(-2.,84.,0.));
#450 = VECTOR('',#451,1.);
#451 = DIRECTION('',(0.,0.,1.));
#452 = PLANE('',#453);
#453 = AXIS2_PLACEMENT_3D('',#454,#455,#456);
#454 = CARTESIAN_POINT('',(-2.,41.,4.5));
#455 = DIRECTION('',(-1.,-0.,-0.));
#456 = DIRECTION('',(0.,0.,-1.));
#457 = ADVANCED_FACE('',(#458),#526,.T.);
#458 = FACE_BOUND('',#459,.T.);
#459 = EDGE_LOOP('',(#460,#461,#469,#477,#485,#491,#492,#500,#508,#516,
    #522,#523,#524,#525));
#460 = ORIENTED_EDGE('',*,*,#411,.T.);
#461 = ORIENTED_EDGE('',*,*,#462,.F.);
#462 = EDGE_CURVE('',#463,#412,#465,.T.);
#463 = VERTEX_POINT('',#464);
#464 = CARTESIAN_POINT('',(7.25,-4.262360158411E-15,0.));
#465 = LINE('',#466,#467);
#466 = CARTESIAN_POINT('',(7.25,-4.305872828649E-15,0.));
#467 = VECTOR('',#468,1.);
#468 = DIRECTION('',(1.,0.,0.));
#469 = ORIENTED_EDGE('',*,*,#470,.T.);
#470 = EDGE_CURVE('',#463,#471,#473,.T.);
#471 = VERTEX_POINT('',#472);
#472 = CARTESIAN_POINT('',(7.25,-2.131180079206E-15,10.5));
#473 = LINE('',#474,#475);
#474 = CARTESIAN_POINT('',(7.25,-4.262360158411E-15,0.));
#475 = VECTOR('',#476,1.);
#476 = DIRECTION('',(0.,0.,1.));
#477 = ORIENTED_EDGE('',*,*,#478,.T.);
#478 = EDGE_CURVE('',#471,#479,#481,.T.);
#479 = VERTEX_POINT('',#480);
#480 = CARTESIAN_POINT('',(0.,0.,10.5));
#481 = LINE('',#482,#483);
#482 = CARTESIAN_POINT('',(21.500000000017,0.,10.5));
#483 = VECTOR('',#484,1.);
#484 = DIRECTION('',(-1.,0.,0.));
#485 = ORIENTED_EDGE('',*,*,#486,.T.);
#486 = EDGE_CURVE('',#479,#390,#487,.T.);
#487 = LINE('',#488,#489);
#488 = CARTESIAN_POINT('',(0.,0.,0.));
#489 = VECTOR('',#490,1.);
#490 = DIRECTION('',(0.,0.,1.));
#491 = ORIENTED_EDGE('',*,*,#397,.T.);
#492 = ORIENTED_EDGE('',*,*,#493,.F.);
#493 = EDGE_CURVE('',#494,#372,#496,.T.);
#494 = VERTEX_POINT('',#495);
#495 = CARTESIAN_POINT('',(21.500000000017,0.,10.5));
#496 = LINE('',#497,#498);
#497 = CARTESIAN_POINT('',(21.5,0.,0.));
#498 = VECTOR('',#499,1.);
#499 = DIRECTION('',(0.,0.,1.));
#500 = ORIENTED_EDGE('',*,*,#501,.T.);
#501 = EDGE_CURVE('',#494,#502,#504,.T.);
#502 = VERTEX_POINT('',#503);
#503 = CARTESIAN_POINT('',(14.25,-2.152936414325E-15,10.5));
#504 = LINE('',#505,#506);
#505 = CARTESIAN_POINT('',(21.500000000017,0.,10.5));
#506 = VECTOR('',#507,1.);
#507 = DIRECTION('',(-1.,0.,0.));
#508 = ORIENTED_EDGE('',*,*,#509,.F.);
#509 = EDGE_CURVE('',#510,#502,#512,.T.);
#510 = VERTEX_POINT('',#511);
#511 = CARTESIAN_POINT('',(14.25,-4.305872828649E-15,0.));
#512 = LINE('',#513,#514);
#513 = CARTESIAN_POINT('',(14.25,-4.305872828649E-15,0.));
#514 = VECTOR('',#515,1.);
#515 = DIRECTION('',(0.,0.,1.));
#516 = ORIENTED_EDGE('',*,*,#517,.F.);
#517 = EDGE_CURVE('',#119,#510,#518,.T.);
#518 = LINE('',#519,#520);
#519 = CARTESIAN_POINT('',(7.25,-4.305872828649E-15,0.));
#520 = VECTOR('',#521,1.);
#521 = DIRECTION('',(1.,0.,0.));
#522 = ORIENTED_EDGE('',*,*,#118,.T.);
#523 = ORIENTED_EDGE('',*,*,#156,.T.);
#524 = ORIENTED_EDGE('',*,*,#281,.T.);
#525 = ORIENTED_EDGE('',*,*,#329,.F.);
#526 = PLANE('',#527);
#527 = AXIS2_PLACEMENT_3D('',#528,#529,#530);
#528 = CARTESIAN_POINT('',(10.750000000002,-1.468355310633E-15,
    7.34589041096));
#529 = DIRECTION('',(0.,1.,0.));
#530 = DIRECTION('',(0.,0.,1.));
#531 = ADVANCED_FACE('',(#532),#575,.T.);
#532 = FACE_BOUND('',#533,.T.);
#533 = EDGE_LOOP('',(#534,#535,#536,#537,#545,#553,#561,#569));
#534 = ORIENTED_EDGE('',*,*,#422,.T.);
#535 = ORIENTED_EDGE('',*,*,#243,.F.);
#536 = ORIENTED_EDGE('',*,*,#134,.F.);
#537 = ORIENTED_EDGE('',*,*,#538,.F.);
#538 = EDGE_CURVE('',#539,#127,#541,.T.);
#539 = VERTEX_POINT('',#540);
#540 = CARTESIAN_POINT('',(14.25,1.5,0.));
#541 = LINE('',#542,#543);
#542 = CARTESIAN_POINT('',(14.25,1.5,0.));
#543 = VECTOR('',#544,1.);
#544 = DIRECTION('',(-1.,0.,0.));
#545 = ORIENTED_EDGE('',*,*,#546,.T.);
#546 = EDGE_CURVE('',#539,#547,#549,.T.);
#547 = VERTEX_POINT('',#548);
#548 = CARTESIAN_POINT('',(14.25,1.5,10.5));
#549 = LINE('',#550,#551);
#550 = CARTESIAN_POINT('',(14.25,1.5,0.));
#551 = VECTOR('',#552,1.);
#552 = DIRECTION('',(0.,0.,1.));
#553 = ORIENTED_EDGE('',*,*,#554,.F.);
#554 = EDGE_CURVE('',#555,#547,#557,.T.);
#555 = VERTEX_POINT('',#556);
#556 = CARTESIAN_POINT('',(7.25,1.5,10.5));
#557 = LINE('',#558,#559);
#558 = CARTESIAN_POINT('',(12.500000000009,1.5,10.5));
#559 = VECTOR('',#560,1.);
#560 = DIRECTION('',(1.,0.,0.));
#561 = ORIENTED_EDGE('',*,*,#562,.F.);
#562 = EDGE_CURVE('',#563,#555,#565,.T.);
#563 = VERTEX_POINT('',#564);
#564 = CARTESIAN_POINT('',(7.25,1.5,0.));
#565 = LINE('',#566,#567);
#566 = CARTESIAN_POINT('',(7.25,1.5,0.));
#567 = VECTOR('',#568,1.);
#568 = DIRECTION('',(0.,0.,1.));
#569 = ORIENTED_EDGE('',*,*,#570,.F.);
#570 = EDGE_CURVE('',#423,#563,#571,.T.);
#571 = LINE('',#572,#573);
#572 = CARTESIAN_POINT('',(14.25,1.5,0.));
#573 = VECTOR('',#574,1.);
#574 = DIRECTION('',(-1.,0.,0.));
#575 = PLANE('',#576);
#576 = AXIS2_PLACEMENT_3D('',#577,#578,#579);
#577 = CARTESIAN_POINT('',(10.75,1.5,4.042682926829));
#578 = DIRECTION('',(-0.,-1.,-0.));
#579 = DIRECTION('',(0.,0.,-1.));
#580 = ADVANCED_FACE('',(#581),#592,.T.);
#581 = FACE_BOUND('',#582,.T.);
#582 = EDGE_LOOP('',(#583,#584,#585,#591));
#583 = ORIENTED_EDGE('',*,*,#126,.F.);
#584 = ORIENTED_EDGE('',*,*,#517,.T.);
#585 = ORIENTED_EDGE('',*,*,#586,.T.);
#586 = EDGE_CURVE('',#510,#539,#587,.T.);
#587 = LINE('',#588,#589);
#588 = CARTESIAN_POINT('',(14.25,-4.305872828649E-15,0.));
#589 = VECTOR('',#590,1.);
#590 = DIRECTION('',(0.,1.,0.));
#591 = ORIENTED_EDGE('',*,*,#538,.T.);
#592 = PLANE('',#593);
#593 = AXIS2_PLACEMENT_3D('',#594,#595,#596);
#594 = CARTESIAN_POINT('',(10.75,41.,0.));
#595 = DIRECTION('',(0.,0.,1.));
#596 = DIRECTION('',(1.,0.,0.));
#597 = ADVANCED_FACE('',(#598),#643,.T.);
#598 = FACE_BOUND('',#599,.T.);
#599 = EDGE_LOOP('',(#600,#608,#609,#610,#611,#612,#613,#621,#629,#637)
  );
#600 = ORIENTED_EDGE('',*,*,#601,.T.);
#601 = EDGE_CURVE('',#602,#213,#604,.T.);
#602 = VERTEX_POINT('',#603);
#603 = CARTESIAN_POINT('',(9.25,84.,3.));
#604 = LINE('',#605,#606);
#605 = CARTESIAN_POINT('',(9.25,84.,4.));
#606 = VECTOR('',#607,1.);
#607 = DIRECTION('',(0.,-2.22044604925E-16,-1.));
#608 = ORIENTED_EDGE('',*,*,#220,.T.);
#609 = ORIENTED_EDGE('',*,*,#447,.T.);
#610 = ORIENTED_EDGE('',*,*,#363,.F.);
#611 = ORIENTED_EDGE('',*,*,#307,.F.);
#612 = ORIENTED_EDGE('',*,*,#188,.T.);
#613 = ORIENTED_EDGE('',*,*,#614,.T.);
#614 = EDGE_CURVE('',#189,#615,#617,.T.);
#615 = VERTEX_POINT('',#616);
#616 = CARTESIAN_POINT('',(12.25,84.,3.));
#617 = LINE('',#618,#619);
#618 = CARTESIAN_POINT('',(12.25,84.,-3.));
#619 = VECTOR('',#620,1.);
#620 = DIRECTION('',(0.,2.22044604925E-16,1.));
#621 = ORIENTED_EDGE('',*,*,#622,.F.);
#622 = EDGE_CURVE('',#623,#615,#625,.T.);
#623 = VERTEX_POINT('',#624);
#624 = CARTESIAN_POINT('',(11.25,84.,4.));
#625 = LINE('',#626,#627);
#626 = CARTESIAN_POINT('',(11.25,84.,4.));
#627 = VECTOR('',#628,1.);
#628 = DIRECTION('',(0.707106781187,0.,-0.707106781187));
#629 = ORIENTED_EDGE('',*,*,#630,.T.);
#630 = EDGE_CURVE('',#623,#631,#633,.T.);
#631 = VERTEX_POINT('',#632);
#632 = CARTESIAN_POINT('',(10.25,84.,4.));
#633 = LINE('',#634,#635);
#634 = CARTESIAN_POINT('',(12.25,84.,4.));
#635 = VECTOR('',#636,1.);
#636 = DIRECTION('',(-1.,0.,0.));
#637 = ORIENTED_EDGE('',*,*,#638,.T.);
#638 = EDGE_CURVE('',#631,#602,#639,.T.);
#639 = LINE('',#640,#641);
#640 = CARTESIAN_POINT('',(10.25,84.,4.));
#641 = VECTOR('',#642,1.);
#642 = DIRECTION('',(-0.707106781187,0.,-0.707106781187));
#643 = PLANE('',#644);
#644 = AXIS2_PLACEMENT_3D('',#645,#646,#647);
#645 = CARTESIAN_POINT('',(10.75,84.,4.5));
#646 = DIRECTION('',(0.,1.,0.));
#647 = DIRECTION('',(0.,0.,1.));
#648 = ADVANCED_FACE('',(#649),#683,.T.);
#649 = FACE_BOUND('',#650,.T.);
#650 = EDGE_LOOP('',(#651,#661,#669,#675,#676,#677));
#651 = ORIENTED_EDGE('',*,*,#652,.T.);
#652 = EDGE_CURVE('',#653,#655,#657,.T.);
#653 = VERTEX_POINT('',#654);
#654 = CARTESIAN_POINT('',(9.25,82.,3.));
#655 = VERTEX_POINT('',#656);
#656 = CARTESIAN_POINT('',(9.25,82.,0.));
#657 = LINE('',#658,#659);
#658 = CARTESIAN_POINT('',(9.25,82.,4.));
#659 = VECTOR('',#660,1.);
#660 = DIRECTION('',(0.,-2.22044604925E-16,-1.));
#661 = ORIENTED_EDGE('',*,*,#662,.T.);
#662 = EDGE_CURVE('',#655,#663,#665,.T.);
#663 = VERTEX_POINT('',#664);
#664 = CARTESIAN_POINT('',(9.25,80.5,0.));
#665 = LINE('',#666,#667);
#666 = CARTESIAN_POINT('',(9.25,61.5,0.));
#667 = VECTOR('',#668,1.);
#668 = DIRECTION('',(0.,-1.,0.));
#669 = ORIENTED_EDGE('',*,*,#670,.T.);
#670 = EDGE_CURVE('',#663,#205,#671,.T.);
#671 = LINE('',#672,#673);
#672 = CARTESIAN_POINT('',(9.25,80.5,91.855876921403));
#673 = VECTOR('',#674,1.);
#674 = DIRECTION('',(-0.,-0.,-1.));
#675 = ORIENTED_EDGE('',*,*,#212,.F.);
#676 = ORIENTED_EDGE('',*,*,#601,.F.);
#677 = ORIENTED_EDGE('',*,*,#678,.T.);
#678 = EDGE_CURVE('',#602,#653,#679,.T.);
#679 = LINE('',#680,#681);
#680 = CARTESIAN_POINT('',(9.25,84.,3.));
#681 = VECTOR('',#682,1.);
#682 = DIRECTION('',(0.,-1.,2.22044604925E-16));
#683 = PLANE('',#684);
#684 = AXIS2_PLACEMENT_3D('',#685,#686,#687);
#685 = CARTESIAN_POINT('',(9.25,82.535714285714,0.214285714286));
#686 = DIRECTION('',(1.,0.,0.));
#687 = DIRECTION('',(0.,0.,1.));
#688 = ADVANCED_FACE('',(#689),#739,.T.);
#689 = FACE_BOUND('',#690,.T.);
#690 = EDGE_LOOP('',(#691,#699,#700,#701,#709,#717,#725,#733));
#691 = ORIENTED_EDGE('',*,*,#692,.T.);
#692 = EDGE_CURVE('',#693,#197,#695,.T.);
#693 = VERTEX_POINT('',#694);
#694 = CARTESIAN_POINT('',(12.25,80.5,0.));
#695 = LINE('',#696,#697);
#696 = CARTESIAN_POINT('',(12.25,80.5,91.855876921403));
#697 = VECTOR('',#698,1.);
#698 = DIRECTION('',(-0.,-0.,-1.));
#699 = ORIENTED_EDGE('',*,*,#204,.F.);
#700 = ORIENTED_EDGE('',*,*,#670,.F.);
#701 = ORIENTED_EDGE('',*,*,#702,.F.);
#702 = EDGE_CURVE('',#703,#663,#705,.T.);
#703 = VERTEX_POINT('',#704);
#704 = CARTESIAN_POINT('',(7.25,80.5,0.));
#705 = LINE('',#706,#707);
#706 = CARTESIAN_POINT('',(7.25,80.5,0.));
#707 = VECTOR('',#708,1.);
#708 = DIRECTION('',(1.,0.,0.));
#709 = ORIENTED_EDGE('',*,*,#710,.T.);
#710 = EDGE_CURVE('',#703,#711,#713,.T.);
#711 = VERTEX_POINT('',#712);
#712 = CARTESIAN_POINT('',(7.25,80.5,10.5));
#713 = LINE('',#714,#715);
#714 = CARTESIAN_POINT('',(7.25,80.5,0.));
#715 = VECTOR('',#716,1.);
#716 = DIRECTION('',(0.,0.,1.));
#717 = ORIENTED_EDGE('',*,*,#718,.F.);
#718 = EDGE_CURVE('',#719,#711,#721,.T.);
#719 = VERTEX_POINT('',#720);
#720 = CARTESIAN_POINT('',(14.25,80.5,10.5));
#721 = LINE('',#722,#723);
#722 = CARTESIAN_POINT('',(9.000000000009,80.5,10.5));
#723 = VECTOR('',#724,1.);
#724 = DIRECTION('',(-1.,0.,0.));
#725 = ORIENTED_EDGE('',*,*,#726,.F.);
#726 = EDGE_CURVE('',#727,#719,#729,.T.);
#727 = VERTEX_POINT('',#728);
#728 = CARTESIAN_POINT('',(14.25,80.5,0.));
#729 = LINE('',#730,#731);
#730 = CARTESIAN_POINT('',(14.25,80.5,0.));
#731 = VECTOR('',#732,1.);
#732 = DIRECTION('',(0.,0.,1.));
#733 = ORIENTED_EDGE('',*,*,#734,.F.);
#734 = EDGE_CURVE('',#693,#727,#735,.T.);
#735 = LINE('',#736,#737);
#736 = CARTESIAN_POINT('',(7.25,80.5,0.));
#737 = VECTOR('',#738,1.);
#738 = DIRECTION('',(1.,0.,0.));
#739 = PLANE('',#740);
#740 = AXIS2_PLACEMENT_3D('',#741,#742,#743);
#741 = CARTESIAN_POINT('',(10.75,80.5,4.042682926829));
#742 = DIRECTION('',(0.,1.,0.));
#743 = DIRECTION('',(0.,0.,1.));
#744 = ADVANCED_FACE('',(#745),#772,.T.);
#745 = FACE_BOUND('',#746,.T.);
#746 = EDGE_LOOP('',(#747,#757,#763,#764,#765,#766));
#747 = ORIENTED_EDGE('',*,*,#748,.T.);
#748 = EDGE_CURVE('',#749,#751,#753,.T.);
#749 = VERTEX_POINT('',#750);
#750 = CARTESIAN_POINT('',(12.25,82.,0.));
#751 = VERTEX_POINT('',#752);
#752 = CARTESIAN_POINT('',(12.25,82.,3.));
#753 = LINE('',#754,#755);
#754 = CARTESIAN_POINT('',(12.25,82.,-3.));
#755 = VECTOR('',#756,1.);
#756 = DIRECTION('',(0.,2.22044604925E-16,1.));
#757 = ORIENTED_EDGE('',*,*,#758,.F.);
#758 = EDGE_CURVE('',#615,#751,#759,.T.);
#759 = LINE('',#760,#761);
#760 = CARTESIAN_POINT('',(12.25,84.,3.));
#761 = VECTOR('',#762,1.);
#762 = DIRECTION('',(0.,-1.,2.22044604925E-16));
#763 = ORIENTED_EDGE('',*,*,#614,.F.);
#764 = ORIENTED_EDGE('',*,*,#196,.F.);
#765 = ORIENTED_EDGE('',*,*,#692,.F.);
#766 = ORIENTED_EDGE('',*,*,#767,.T.);
#767 = EDGE_CURVE('',#693,#749,#768,.T.);
#768 = LINE('',#769,#770);
#769 = CARTESIAN_POINT('',(12.25,60.75,0.));
#770 = VECTOR('',#771,1.);
#771 = DIRECTION('',(0.,1.,0.));
#772 = PLANE('',#773);
#773 = AXIS2_PLACEMENT_3D('',#774,#775,#776);
#774 = CARTESIAN_POINT('',(12.25,82.535714285714,0.214285714286));
#775 = DIRECTION('',(-1.,-0.,-0.));
#776 = DIRECTION('',(0.,0.,-1.));
#777 = ADVANCED_FACE('',(#778),#797,.F.);
#778 = FACE_BOUND('',#779,.F.);
#779 = EDGE_LOOP('',(#780,#789,#795,#796));
#780 = ORIENTED_EDGE('',*,*,#781,.F.);
#781 = EDGE_CURVE('',#782,#782,#784,.T.);
#782 = VERTEX_POINT('',#783);
#783 = CARTESIAN_POINT('',(12.375,23.428571428571,-2.5));
#784 = CIRCLE('',#785,1.625);
#785 = AXIS2_PLACEMENT_3D('',#786,#787,#788);
#786 = CARTESIAN_POINT('',(10.75,23.428571428571,-2.5));
#787 = DIRECTION('',(0.,0.,1.));
#788 = DIRECTION('',(1.,0.,0.));
#789 = ORIENTED_EDGE('',*,*,#790,.T.);
#790 = EDGE_CURVE('',#782,#254,#791,.T.);
#791 = LINE('',#792,#793);
#792 = CARTESIAN_POINT('',(12.375,23.428571428571,91.855876921403));
#793 = VECTOR('',#794,1.);
#794 = DIRECTION('',(-0.,-0.,-1.));
#795 = ORIENTED_EDGE('',*,*,#253,.T.);
#796 = ORIENTED_EDGE('',*,*,#790,.F.);
#797 = CYLINDRICAL_SURFACE('',#798,1.625);
#798 = AXIS2_PLACEMENT_3D('',#799,#800,#801);
#799 = CARTESIAN_POINT('',(10.75,23.428571428571,91.855876921403));
#800 = DIRECTION('',(0.,0.,1.));
#801 = DIRECTION('',(1.,0.,0.));
#802 = ADVANCED_FACE('',(#803),#822,.F.);
#803 = FACE_BOUND('',#804,.F.);
#804 = EDGE_LOOP('',(#805,#814,#820,#821));
#805 = ORIENTED_EDGE('',*,*,#806,.F.);
#806 = EDGE_CURVE('',#807,#807,#809,.T.);
#807 = VERTEX_POINT('',#808);
#808 = CARTESIAN_POINT('',(12.375,58.571428571429,-2.5));
#809 = CIRCLE('',#810,1.625);
#810 = AXIS2_PLACEMENT_3D('',#811,#812,#813);
#811 = CARTESIAN_POINT('',(10.75,58.571428571429,-2.5));
#812 = DIRECTION('',(0.,0.,1.));
#813 = DIRECTION('',(1.,0.,0.));
#814 = ORIENTED_EDGE('',*,*,#815,.T.);
#815 = EDGE_CURVE('',#807,#265,#816,.T.);
#816 = LINE('',#817,#818);
#817 = CARTESIAN_POINT('',(12.375,58.571428571429,91.855876921403));
#818 = VECTOR('',#819,1.);
#819 = DIRECTION('',(-0.,-0.,-1.));
#820 = ORIENTED_EDGE('',*,*,#264,.T.);
#821 = ORIENTED_EDGE('',*,*,#815,.F.);
#822 = CYLINDRICAL_SURFACE('',#823,1.625);
#823 = AXIS2_PLACEMENT_3D('',#824,#825,#826);
#824 = CARTESIAN_POINT('',(10.75,58.571428571429,91.855876921403));
#825 = DIRECTION('',(0.,0.,1.));
#826 = DIRECTION('',(1.,0.,0.));
#827 = ADVANCED_FACE('',(#828),#878,.T.);
#828 = FACE_BOUND('',#829,.T.);
#829 = EDGE_LOOP('',(#830,#840,#848,#854,#855,#856,#864,#872));
#830 = ORIENTED_EDGE('',*,*,#831,.F.);
#831 = EDGE_CURVE('',#832,#834,#836,.T.);
#832 = VERTEX_POINT('',#833);
#833 = CARTESIAN_POINT('',(21.500000000008,3.5,5.375));
#834 = VERTEX_POINT('',#835);
#835 = CARTESIAN_POINT('',(21.50000000002,78.5,5.375));
#836 = LINE('',#837,#838);
#837 = CARTESIAN_POINT('',(21.5,1.193489751472E-15,5.375));
#838 = VECTOR('',#839,1.);
#839 = DIRECTION('',(0.,1.,-2.22044604925E-16));
#840 = ORIENTED_EDGE('',*,*,#841,.T.);
#841 = EDGE_CURVE('',#832,#842,#844,.T.);
#842 = VERTEX_POINT('',#843);
#843 = CARTESIAN_POINT('',(21.500000000017,3.5,10.5));
#844 = LINE('',#845,#846);
#845 = CARTESIAN_POINT('',(21.500000000017,3.5,0.));
#846 = VECTOR('',#847,1.);
#847 = DIRECTION('',(0.,0.,1.));
#848 = ORIENTED_EDGE('',*,*,#849,.T.);
#849 = EDGE_CURVE('',#842,#494,#850,.T.);
#850 = LINE('',#851,#852);
#851 = CARTESIAN_POINT('',(21.500000000017,3.5,10.5));
#852 = VECTOR('',#853,1.);
#853 = DIRECTION('',(0.,-1.,0.));
#854 = ORIENTED_EDGE('',*,*,#493,.T.);
#855 = ORIENTED_EDGE('',*,*,#371,.T.);
#856 = ORIENTED_EDGE('',*,*,#857,.F.);
#857 = EDGE_CURVE('',#858,#374,#860,.T.);
#858 = VERTEX_POINT('',#859);
#859 = CARTESIAN_POINT('',(21.500000000041,82.,10.5));
#860 = LINE('',#861,#862);
#861 = CARTESIAN_POINT('',(21.5,82.,0.));
#862 = VECTOR('',#863,1.);
#863 = DIRECTION('',(0.,0.,1.));
#864 = ORIENTED_EDGE('',*,*,#865,.F.);
#865 = EDGE_CURVE('',#866,#858,#868,.T.);
#866 = VERTEX_POINT('',#867);
#867 = CARTESIAN_POINT('',(21.500000000041,78.5,10.5));
#868 = LINE('',#869,#870);
#869 = CARTESIAN_POINT('',(21.500000000041,78.5,10.5));
#870 = VECTOR('',#871,1.);
#871 = DIRECTION('',(0.,1.,0.));
#872 = ORIENTED_EDGE('',*,*,#873,.F.);
#873 = EDGE_CURVE('',#834,#866,#874,.T.);
#874 = LINE('',#875,#876);
#875 = CARTESIAN_POINT('',(21.500000000041,78.5,0.));
#876 = VECTOR('',#877,1.);
#877 = DIRECTION('',(0.,0.,1.));
#878 = PLANE('',#879);
#879 = AXIS2_PLACEMENT_3D('',#880,#881,#882);
#880 = CARTESIAN_POINT('',(21.5,0.,0.));
#881 = DIRECTION('',(-1.,0.,0.));
#882 = DIRECTION('',(0.,1.,0.));
#883 = ADVANCED_FACE('',(#884),#964,.T.);
#884 = FACE_BOUND('',#885,.T.);
#885 = EDGE_LOOP('',(#886,#887,#895,#903,#909,#910,#911,#919,#927,#935,
    #941,#942,#950,#958));
#886 = ORIENTED_EDGE('',*,*,#748,.F.);
#887 = ORIENTED_EDGE('',*,*,#888,.T.);
#888 = EDGE_CURVE('',#749,#889,#891,.T.);
#889 = VERTEX_POINT('',#890);
#890 = CARTESIAN_POINT('',(14.25,82.,0.));
#891 = LINE('',#892,#893);
#892 = CARTESIAN_POINT('',(7.25,82.,0.));
#893 = VECTOR('',#894,1.);
#894 = DIRECTION('',(1.,0.,0.));
#895 = ORIENTED_EDGE('',*,*,#896,.T.);
#896 = EDGE_CURVE('',#889,#897,#899,.T.);
#897 = VERTEX_POINT('',#898);
#898 = CARTESIAN_POINT('',(14.25,82.,10.5));
#899 = LINE('',#900,#901);
#900 = CARTESIAN_POINT('',(14.25,82.,0.));
#901 = VECTOR('',#902,1.);
#902 = DIRECTION('',(0.,0.,1.));
#903 = ORIENTED_EDGE('',*,*,#904,.F.);
#904 = EDGE_CURVE('',#858,#897,#905,.T.);
#905 = LINE('',#906,#907);
#906 = CARTESIAN_POINT('',(21.500000000041,82.,10.5));
#907 = VECTOR('',#908,1.);
#908 = DIRECTION('',(-1.,0.,0.));
#909 = ORIENTED_EDGE('',*,*,#857,.T.);
#910 = ORIENTED_EDGE('',*,*,#381,.T.);
#911 = ORIENTED_EDGE('',*,*,#912,.F.);
#912 = EDGE_CURVE('',#913,#382,#915,.T.);
#913 = VERTEX_POINT('',#914);
#914 = CARTESIAN_POINT('',(1.607275302392E-11,82.,10.5));
#915 = LINE('',#916,#917);
#916 = CARTESIAN_POINT('',(0.,82.,0.));
#917 = VECTOR('',#918,1.);
#918 = DIRECTION('',(0.,0.,1.));
#919 = ORIENTED_EDGE('',*,*,#920,.F.);
#920 = EDGE_CURVE('',#921,#913,#923,.T.);
#921 = VERTEX_POINT('',#922);
#922 = CARTESIAN_POINT('',(7.25,82.,10.5));
#923 = LINE('',#924,#925);
#924 = CARTESIAN_POINT('',(21.500000000041,82.,10.5));
#925 = VECTOR('',#926,1.);
#926 = DIRECTION('',(-1.,0.,0.));
#927 = ORIENTED_EDGE('',*,*,#928,.F.);
#928 = EDGE_CURVE('',#929,#921,#931,.T.);
#929 = VERTEX_POINT('',#930);
#930 = CARTESIAN_POINT('',(7.25,82.,0.));
#931 = LINE('',#932,#933);
#932 = CARTESIAN_POINT('',(7.25,82.,0.));
#933 = VECTOR('',#934,1.);
#934 = DIRECTION('',(0.,0.,1.));
#935 = ORIENTED_EDGE('',*,*,#936,.T.);
#936 = EDGE_CURVE('',#929,#655,#937,.T.);
#937 = LINE('',#938,#939);
#938 = CARTESIAN_POINT('',(7.25,82.,0.));
#939 = VECTOR('',#940,1.);
#940 = DIRECTION('',(1.,0.,0.));
#941 = ORIENTED_EDGE('',*,*,#652,.F.);
#942 = ORIENTED_EDGE('',*,*,#943,.F.);
#943 = EDGE_CURVE('',#944,#653,#946,.T.);
#944 = VERTEX_POINT('',#945);
#945 = CARTESIAN_POINT('',(10.25,82.,4.));
#946 = LINE('',#947,#948);
#947 = CARTESIAN_POINT('',(10.961472602742,82.,4.711472602742));
#948 = VECTOR('',#949,1.);
#949 = DIRECTION('',(-0.707106781187,0.,-0.707106781187));
#950 = ORIENTED_EDGE('',*,*,#951,.F.);
#951 = EDGE_CURVE('',#952,#944,#954,.T.);
#952 = VERTEX_POINT('',#953);
#953 = CARTESIAN_POINT('',(11.25,82.,4.));
#954 = LINE('',#955,#956);
#955 = CARTESIAN_POINT('',(12.25,82.,4.));
#956 = VECTOR('',#957,1.);
#957 = DIRECTION('',(-1.,0.,0.));
#958 = ORIENTED_EDGE('',*,*,#959,.T.);
#959 = EDGE_CURVE('',#952,#751,#960,.T.);
#960 = LINE('',#961,#962);
#961 = CARTESIAN_POINT('',(10.538527397262,82.,4.711472602738));
#962 = VECTOR('',#963,1.);
#963 = DIRECTION('',(0.707106781187,0.,-0.707106781187));
#964 = PLANE('',#965);
#965 = AXIS2_PLACEMENT_3D('',#966,#967,#968);
#966 = CARTESIAN_POINT('',(10.750000000008,82.,7.34589041096));
#967 = DIRECTION('',(-0.,-1.,-0.));
#968 = DIRECTION('',(0.,0.,-1.));
#969 = ADVANCED_FACE('',(#970),#1013,.T.);
#970 = FACE_BOUND('',#971,.T.);
#971 = EDGE_LOOP('',(#972,#982,#990,#998,#1004,#1005,#1006,#1007));
#972 = ORIENTED_EDGE('',*,*,#973,.F.);
#973 = EDGE_CURVE('',#974,#976,#978,.T.);
#974 = VERTEX_POINT('',#975);
#975 = CARTESIAN_POINT('',(0.,3.5,5.375));
#976 = VERTEX_POINT('',#977);
#977 = CARTESIAN_POINT('',(0.,3.5,10.5));
#978 = LINE('',#979,#980);
#979 = CARTESIAN_POINT('',(0.,3.5,0.));
#980 = VECTOR('',#981,1.);
#981 = DIRECTION('',(0.,0.,1.));
#982 = ORIENTED_EDGE('',*,*,#983,.T.);
#983 = EDGE_CURVE('',#974,#984,#986,.T.);
#984 = VERTEX_POINT('',#985);
#985 = CARTESIAN_POINT('',(8.036514682476E-12,78.5,5.375));
#986 = LINE('',#987,#988);
#987 = CARTESIAN_POINT('',(0.,1.193489751472E-15,5.375));
#988 = VECTOR('',#989,1.);
#989 = DIRECTION('',(0.,1.,-2.22044604925E-16));
#990 = ORIENTED_EDGE('',*,*,#991,.T.);
#991 = EDGE_CURVE('',#984,#992,#994,.T.);
#992 = VERTEX_POINT('',#993);
#993 = CARTESIAN_POINT('',(1.607302936495E-11,78.5,10.5));
#994 = LINE('',#995,#996);
#995 = CARTESIAN_POINT('',(1.607302936495E-11,78.5,0.));
#996 = VECTOR('',#997,1.);
#997 = DIRECTION('',(0.,0.,1.));
#998 = ORIENTED_EDGE('',*,*,#999,.F.);
#999 = EDGE_CURVE('',#913,#992,#1000,.T.);
#1000 = LINE('',#1001,#1002);
#1001 = CARTESIAN_POINT('',(1.607302936495E-11,82.,10.5));
#1002 = VECTOR('',#1003,1.);
#1003 = DIRECTION('',(0.,-1.,0.));
#1004 = ORIENTED_EDGE('',*,*,#912,.T.);
#1005 = ORIENTED_EDGE('',*,*,#389,.T.);
#1006 = ORIENTED_EDGE('',*,*,#486,.F.);
#1007 = ORIENTED_EDGE('',*,*,#1008,.F.);
#1008 = EDGE_CURVE('',#976,#479,#1009,.T.);
#1009 = LINE('',#1010,#1011);
#1010 = CARTESIAN_POINT('',(0.,3.5,10.5));
#1011 = VECTOR('',#1012,1.);
#1012 = DIRECTION('',(0.,-1.,0.));
#1013 = PLANE('',#1014);
#1014 = AXIS2_PLACEMENT_3D('',#1015,#1016,#1017);
#1015 = CARTESIAN_POINT('',(0.,82.,0.));
#1016 = DIRECTION('',(1.,0.,0.));
#1017 = DIRECTION('',(0.,-1.,0.));
#1018 = ADVANCED_FACE('',(#1019),#1030,.T.);
#1019 = FACE_BOUND('',#1020,.T.);
#1020 = EDGE_LOOP('',(#1021,#1027,#1028,#1029));
#1021 = ORIENTED_EDGE('',*,*,#1022,.T.);
#1022 = EDGE_CURVE('',#563,#463,#1023,.T.);
#1023 = LINE('',#1024,#1025);
#1024 = CARTESIAN_POINT('',(7.25,1.5,0.));
#1025 = VECTOR('',#1026,1.);
#1026 = DIRECTION('',(0.,-1.,0.));
#1027 = ORIENTED_EDGE('',*,*,#462,.T.);
#1028 = ORIENTED_EDGE('',*,*,#430,.F.);
#1029 = ORIENTED_EDGE('',*,*,#570,.T.);
#1030 = PLANE('',#1031);
#1031 = AXIS2_PLACEMENT_3D('',#1032,#1033,#1034);
#1032 = CARTESIAN_POINT('',(10.75,41.,0.));
#1033 = DIRECTION('',(0.,0.,1.));
#1034 = DIRECTION('',(1.,0.,0.));
#1035 = ADVANCED_FACE('',(#1036),#1047,.T.);
#1036 = FACE_BOUND('',#1037,.T.);
#1037 = EDGE_LOOP('',(#1038,#1039,#1040,#1046));
#1038 = ORIENTED_EDGE('',*,*,#1022,.F.);
#1039 = ORIENTED_EDGE('',*,*,#562,.T.);
#1040 = ORIENTED_EDGE('',*,*,#1041,.F.);
#1041 = EDGE_CURVE('',#471,#555,#1042,.T.);
#1042 = LINE('',#1043,#1044);
#1043 = CARTESIAN_POINT('',(7.25,21.250000000003,10.5));
#1044 = VECTOR('',#1045,1.);
#1045 = DIRECTION('',(0.,1.,0.));
#1046 = ORIENTED_EDGE('',*,*,#470,.F.);
#1047 = PLANE('',#1048);
#1048 = AXIS2_PLACEMENT_3D('',#1049,#1050,#1051);
#1049 = CARTESIAN_POINT('',(7.25,1.5,0.));
#1050 = DIRECTION('',(1.,0.,0.));
#1051 = DIRECTION('',(0.,-1.,0.));
#1052 = ADVANCED_FACE('',(#1053),#1073,.T.);
#1053 = FACE_BOUND('',#1054,.T.);
#1054 = EDGE_LOOP('',(#1055,#1061,#1062,#1063,#1064,#1065,#1071,#1072));
#1055 = ORIENTED_EDGE('',*,*,#1056,.F.);
#1056 = EDGE_CURVE('',#976,#842,#1057,.T.);
#1057 = LINE('',#1058,#1059);
#1058 = CARTESIAN_POINT('',(0.,3.5,10.5));
#1059 = VECTOR('',#1060,1.);
#1060 = DIRECTION('',(1.,0.,0.));
#1061 = ORIENTED_EDGE('',*,*,#1008,.T.);
#1062 = ORIENTED_EDGE('',*,*,#478,.F.);
#1063 = ORIENTED_EDGE('',*,*,#1041,.T.);
#1064 = ORIENTED_EDGE('',*,*,#554,.T.);
#1065 = ORIENTED_EDGE('',*,*,#1066,.T.);
#1066 = EDGE_CURVE('',#547,#502,#1067,.T.);
#1067 = LINE('',#1068,#1069);
#1068 = CARTESIAN_POINT('',(14.25,20.500000000003,10.5));
#1069 = VECTOR('',#1070,1.);
#1070 = DIRECTION('',(0.,-1.,0.));
#1071 = ORIENTED_EDGE('',*,*,#501,.F.);
#1072 = ORIENTED_EDGE('',*,*,#849,.F.);
#1073 = PLANE('',#1074);
#1074 = AXIS2_PLACEMENT_3D('',#1075,#1076,#1077);
#1075 = CARTESIAN_POINT('',(10.750000000018,41.000000000006,10.5));
#1076 = DIRECTION('',(0.,0.,1.));
#1077 = DIRECTION('',(1.,0.,0.));
#1078 = ADVANCED_FACE('',(#1079),#1085,.T.);
#1079 = FACE_BOUND('',#1080,.T.);
#1080 = EDGE_LOOP('',(#1081,#1082,#1083,#1084));
#1081 = ORIENTED_EDGE('',*,*,#586,.F.);
#1082 = ORIENTED_EDGE('',*,*,#509,.T.);
#1083 = ORIENTED_EDGE('',*,*,#1066,.F.);
#1084 = ORIENTED_EDGE('',*,*,#546,.F.);
#1085 = PLANE('',#1086);
#1086 = AXIS2_PLACEMENT_3D('',#1087,#1088,#1089);
#1087 = CARTESIAN_POINT('',(14.25,-4.305872828649E-15,0.));
#1088 = DIRECTION('',(-1.,0.,0.));
#1089 = DIRECTION('',(0.,1.,0.));
#1090 = ADVANCED_FACE('',(#1091),#1102,.F.);
#1091 = FACE_BOUND('',#1092,.T.);
#1092 = EDGE_LOOP('',(#1093,#1094,#1100,#1101));
#1093 = ORIENTED_EDGE('',*,*,#638,.F.);
#1094 = ORIENTED_EDGE('',*,*,#1095,.T.);
#1095 = EDGE_CURVE('',#631,#944,#1096,.T.);
#1096 = LINE('',#1097,#1098);
#1097 = CARTESIAN_POINT('',(10.25,84.,4.));
#1098 = VECTOR('',#1099,1.);
#1099 = DIRECTION('',(0.,-1.,2.22044604925E-16));
#1100 = ORIENTED_EDGE('',*,*,#943,.T.);
#1101 = ORIENTED_EDGE('',*,*,#678,.F.);
#1102 = PLANE('',#1103);
#1103 = AXIS2_PLACEMENT_3D('',#1104,#1105,#1106);
#1104 = CARTESIAN_POINT('',(9.75,84.,3.5));
#1105 = DIRECTION('',(-0.707106781187,1.681905437983E-16,0.707106781187)
  );
#1106 = DIRECTION('',(7.906371588698E-18,1.,-2.299509765137E-16));
#1107 = ADVANCED_FACE('',(#1108),#1119,.T.);
#1108 = FACE_BOUND('',#1109,.T.);
#1109 = EDGE_LOOP('',(#1110,#1111,#1117,#1118));
#1110 = ORIENTED_EDGE('',*,*,#630,.F.);
#1111 = ORIENTED_EDGE('',*,*,#1112,.T.);
#1112 = EDGE_CURVE('',#623,#952,#1113,.T.);
#1113 = LINE('',#1114,#1115);
#1114 = CARTESIAN_POINT('',(11.25,84.,4.));
#1115 = VECTOR('',#1116,1.);
#1116 = DIRECTION('',(0.,-1.,2.22044604925E-16));
#1117 = ORIENTED_EDGE('',*,*,#951,.T.);
#1118 = ORIENTED_EDGE('',*,*,#1095,.F.);
#1119 = PLANE('',#1120);
#1120 = AXIS2_PLACEMENT_3D('',#1121,#1122,#1123);
#1121 = CARTESIAN_POINT('',(12.25,84.,4.));
#1122 = DIRECTION('',(-0.,-2.22044604925E-16,-1.));
#1123 = DIRECTION('',(-1.,0.,0.));
#1124 = ADVANCED_FACE('',(#1125),#1131,.F.);
#1125 = FACE_BOUND('',#1126,.F.);
#1126 = EDGE_LOOP('',(#1127,#1128,#1129,#1130));
#1127 = ORIENTED_EDGE('',*,*,#622,.F.);
#1128 = ORIENTED_EDGE('',*,*,#1112,.T.);
#1129 = ORIENTED_EDGE('',*,*,#959,.T.);
#1130 = ORIENTED_EDGE('',*,*,#758,.F.);
#1131 = PLANE('',#1132);
#1132 = AXIS2_PLACEMENT_3D('',#1133,#1134,#1135);
#1133 = CARTESIAN_POINT('',(11.75,84.,3.5));
#1134 = DIRECTION('',(0.707106781187,1.401587864986E-16,0.707106781187)
  );
#1135 = DIRECTION('',(-1.19150740865E-17,-1.,2.101295308385E-16));
#1136 = ADVANCED_FACE('',(#1137),#1148,.T.);
#1137 = FACE_BOUND('',#1138,.T.);
#1138 = EDGE_LOOP('',(#1139,#1140,#1146,#1147));
#1139 = ORIENTED_EDGE('',*,*,#936,.F.);
#1140 = ORIENTED_EDGE('',*,*,#1141,.T.);
#1141 = EDGE_CURVE('',#929,#703,#1142,.T.);
#1142 = LINE('',#1143,#1144);
#1143 = CARTESIAN_POINT('',(7.25,82.,0.));
#1144 = VECTOR('',#1145,1.);
#1145 = DIRECTION('',(0.,-1.,0.));
#1146 = ORIENTED_EDGE('',*,*,#702,.T.);
#1147 = ORIENTED_EDGE('',*,*,#662,.F.);
#1148 = PLANE('',#1149);
#1149 = AXIS2_PLACEMENT_3D('',#1150,#1151,#1152);
#1150 = CARTESIAN_POINT('',(10.75,41.,0.));
#1151 = DIRECTION('',(0.,0.,1.));
#1152 = DIRECTION('',(1.,0.,0.));
#1153 = ADVANCED_FACE('',(#1154),#1165,.T.);
#1154 = FACE_BOUND('',#1155,.T.);
#1155 = EDGE_LOOP('',(#1156,#1157,#1158,#1164));
#1156 = ORIENTED_EDGE('',*,*,#1141,.F.);
#1157 = ORIENTED_EDGE('',*,*,#928,.T.);
#1158 = ORIENTED_EDGE('',*,*,#1159,.F.);
#1159 = EDGE_CURVE('',#711,#921,#1160,.T.);
#1160 = LINE('',#1161,#1162);
#1161 = CARTESIAN_POINT('',(7.25,61.500000000003,10.5));
#1162 = VECTOR('',#1163,1.);
#1163 = DIRECTION('',(0.,1.,0.));
#1164 = ORIENTED_EDGE('',*,*,#710,.F.);
#1165 = PLANE('',#1166);
#1166 = AXIS2_PLACEMENT_3D('',#1167,#1168,#1169);
#1167 = CARTESIAN_POINT('',(7.25,82.,0.));
#1168 = DIRECTION('',(1.,0.,0.));
#1169 = DIRECTION('',(0.,-1.,0.));
#1170 = ADVANCED_FACE('',(#1171),#1191,.T.);
#1171 = FACE_BOUND('',#1172,.T.);
#1172 = EDGE_LOOP('',(#1173,#1174,#1175,#1181,#1182,#1183,#1189,#1190));
#1173 = ORIENTED_EDGE('',*,*,#920,.T.);
#1174 = ORIENTED_EDGE('',*,*,#999,.T.);
#1175 = ORIENTED_EDGE('',*,*,#1176,.T.);
#1176 = EDGE_CURVE('',#992,#866,#1177,.T.);
#1177 = LINE('',#1178,#1179);
#1178 = CARTESIAN_POINT('',(1.607302936495E-11,78.5,10.5));
#1179 = VECTOR('',#1180,1.);
#1180 = DIRECTION('',(1.,0.,0.));
#1181 = ORIENTED_EDGE('',*,*,#865,.T.);
#1182 = ORIENTED_EDGE('',*,*,#904,.T.);
#1183 = ORIENTED_EDGE('',*,*,#1184,.T.);
#1184 = EDGE_CURVE('',#897,#719,#1185,.T.);
#1185 = LINE('',#1186,#1187);
#1186 = CARTESIAN_POINT('',(14.25,60.750000000003,10.5));
#1187 = VECTOR('',#1188,1.);
#1188 = DIRECTION('',(0.,-1.,0.));
#1189 = ORIENTED_EDGE('',*,*,#718,.T.);
#1190 = ORIENTED_EDGE('',*,*,#1159,.T.);
#1191 = PLANE('',#1192);
#1192 = AXIS2_PLACEMENT_3D('',#1193,#1194,#1195);
#1193 = CARTESIAN_POINT('',(10.750000000018,41.000000000006,10.5));
#1194 = DIRECTION('',(0.,0.,1.));
#1195 = DIRECTION('',(1.,0.,0.));
#1196 = ADVANCED_FACE('',(#1197),#1208,.T.);
#1197 = FACE_BOUND('',#1198,.T.);
#1198 = EDGE_LOOP('',(#1199,#1205,#1206,#1207));
#1199 = ORIENTED_EDGE('',*,*,#1200,.F.);
#1200 = EDGE_CURVE('',#727,#889,#1201,.T.);
#1201 = LINE('',#1202,#1203);
#1202 = CARTESIAN_POINT('',(14.25,80.5,0.));
#1203 = VECTOR('',#1204,1.);
#1204 = DIRECTION('',(0.,1.,0.));
#1205 = ORIENTED_EDGE('',*,*,#726,.T.);
#1206 = ORIENTED_EDGE('',*,*,#1184,.F.);
#1207 = ORIENTED_EDGE('',*,*,#896,.F.);
#1208 = PLANE('',#1209);
#1209 = AXIS2_PLACEMENT_3D('',#1210,#1211,#1212);
#1210 = CARTESIAN_POINT('',(14.25,80.5,0.));
#1211 = DIRECTION('',(-1.,0.,0.));
#1212 = DIRECTION('',(0.,1.,0.));
#1213 = ADVANCED_FACE('',(#1214),#1220,.T.);
#1214 = FACE_BOUND('',#1215,.T.);
#1215 = EDGE_LOOP('',(#1216,#1217,#1218,#1219));
#1216 = ORIENTED_EDGE('',*,*,#888,.F.);
#1217 = ORIENTED_EDGE('',*,*,#767,.F.);
#1218 = ORIENTED_EDGE('',*,*,#734,.T.);
#1219 = ORIENTED_EDGE('',*,*,#1200,.T.);
#1220 = PLANE('',#1221);
#1221 = AXIS2_PLACEMENT_3D('',#1222,#1223,#1224);
#1222 = CARTESIAN_POINT('',(10.75,41.,0.));
#1223 = DIRECTION('',(0.,0.,1.));
#1224 = DIRECTION('',(1.,0.,0.));
#1225 = ADVANCED_FACE('',(#1226),#1262,.F.);
#1226 = FACE_BOUND('',#1227,.F.);
#1227 = EDGE_LOOP('',(#1228,#1235,#1236,#1237,#1246,#1255));
#1228 = ORIENTED_EDGE('',*,*,#1229,.F.);
#1229 = EDGE_CURVE('',#782,#1230,#1232,.T.);
#1230 = VERTEX_POINT('',#1231);
#1231 = CARTESIAN_POINT('',(13.875,23.428571428571,0.));
#1232 = B_SPLINE_CURVE_WITH_KNOTS('',1,(#1233,#1234),.UNSPECIFIED.,.F.,
  .F.,(2,2),(0.,1.),.PIECEWISE_BEZIER_KNOTS.);
#1233 = CARTESIAN_POINT('',(12.375,23.428571428571,-2.5));
#1234 = CARTESIAN_POINT('',(13.875,23.428571428571,0.));
#1235 = ORIENTED_EDGE('',*,*,#781,.T.);
#1236 = ORIENTED_EDGE('',*,*,#1229,.T.);
#1237 = ORIENTED_EDGE('',*,*,#1238,.F.);
#1238 = EDGE_CURVE('',#1239,#1230,#1241,.T.);
#1239 = VERTEX_POINT('',#1240);
#1240 = CARTESIAN_POINT('',(10.749999685726,20.303571428571,0.));
#1241 = CIRCLE('',#1242,3.125);
#1242 = AXIS2_PLACEMENT_3D('',#1243,#1244,#1245);
#1243 = CARTESIAN_POINT('',(10.75,23.428571428571,0.));
#1244 = DIRECTION('',(0.,0.,1.));
#1245 = DIRECTION('',(1.,0.,0.));
#1246 = ORIENTED_EDGE('',*,*,#1247,.F.);
#1247 = EDGE_CURVE('',#1248,#1239,#1250,.T.);
#1248 = VERTEX_POINT('',#1249);
#1249 = CARTESIAN_POINT('',(10.75,26.553571428571,0.));
#1250 = CIRCLE('',#1251,3.125);
#1251 = AXIS2_PLACEMENT_3D('',#1252,#1253,#1254);
#1252 = CARTESIAN_POINT('',(10.75,23.428571428571,0.));
#1253 = DIRECTION('',(0.,0.,1.));
#1254 = DIRECTION('',(1.,0.,0.));
#1255 = ORIENTED_EDGE('',*,*,#1256,.F.);
#1256 = EDGE_CURVE('',#1230,#1248,#1257,.T.);
#1257 = CIRCLE('',#1258,3.125);
#1258 = AXIS2_PLACEMENT_3D('',#1259,#1260,#1261);
#1259 = CARTESIAN_POINT('',(10.75,23.428571428571,0.));
#1260 = DIRECTION('',(0.,0.,1.));
#1261 = DIRECTION('',(1.,0.,0.));
#1262 = CONICAL_SURFACE('',#1263,1.625,0.540419500271);
#1263 = AXIS2_PLACEMENT_3D('',#1264,#1265,#1266);
#1264 = CARTESIAN_POINT('',(10.75,23.428571428571,-2.5));
#1265 = DIRECTION('',(0.,0.,1.));
#1266 = DIRECTION('',(1.,0.,0.));
#1267 = ADVANCED_FACE('',(#1268),#1304,.F.);
#1268 = FACE_BOUND('',#1269,.F.);
#1269 = EDGE_LOOP('',(#1270,#1277,#1278,#1279,#1288,#1297));
#1270 = ORIENTED_EDGE('',*,*,#1271,.F.);
#1271 = EDGE_CURVE('',#807,#1272,#1274,.T.);
#1272 = VERTEX_POINT('',#1273);
#1273 = CARTESIAN_POINT('',(13.875,58.571428571429,0.));
#1274 = B_SPLINE_CURVE_WITH_KNOTS('',1,(#1275,#1276),.UNSPECIFIED.,.F.,
  .F.,(2,2),(0.,1.),.PIECEWISE_BEZIER_KNOTS.);
#1275 = CARTESIAN_POINT('',(12.375,58.571428571429,-2.5));
#1276 = CARTESIAN_POINT('',(13.875,58.571428571429,0.));
#1277 = ORIENTED_EDGE('',*,*,#806,.T.);
#1278 = ORIENTED_EDGE('',*,*,#1271,.T.);
#1279 = ORIENTED_EDGE('',*,*,#1280,.F.);
#1280 = EDGE_CURVE('',#1281,#1272,#1283,.T.);
#1281 = VERTEX_POINT('',#1282);
#1282 = CARTESIAN_POINT('',(10.74999948106,55.446428571429,0.));
#1283 = CIRCLE('',#1284,3.125);
#1284 = AXIS2_PLACEMENT_3D('',#1285,#1286,#1287);
#1285 = CARTESIAN_POINT('',(10.75,58.571428571429,0.));
#1286 = DIRECTION('',(0.,0.,1.));
#1287 = DIRECTION('',(1.,0.,0.));
#1288 = ORIENTED_EDGE('',*,*,#1289,.F.);
#1289 = EDGE_CURVE('',#1290,#1281,#1292,.T.);
#1290 = VERTEX_POINT('',#1291);
#1291 = CARTESIAN_POINT('',(10.750000546933,61.696428571429,0.));
#1292 = CIRCLE('',#1293,3.125);
#1293 = AXIS2_PLACEMENT_3D('',#1294,#1295,#1296);
#1294 = CARTESIAN_POINT('',(10.75,58.571428571429,0.));
#1295 = DIRECTION('',(0.,0.,1.));
#1296 = DIRECTION('',(1.,0.,0.));
#1297 = ORIENTED_EDGE('',*,*,#1298,.F.);
#1298 = EDGE_CURVE('',#1272,#1290,#1299,.T.);
#1299 = CIRCLE('',#1300,3.125);
#1300 = AXIS2_PLACEMENT_3D('',#1301,#1302,#1303);
#1301 = CARTESIAN_POINT('',(10.75,58.571428571429,0.));
#1302 = DIRECTION('',(0.,0.,1.));
#1303 = DIRECTION('',(1.,0.,0.));
#1304 = CONICAL_SURFACE('',#1305,1.625,0.540419500271);
#1305 = AXIS2_PLACEMENT_3D('',#1306,#1307,#1308);
#1306 = CARTESIAN_POINT('',(10.75,58.571428571429,-2.5));
#1307 = DIRECTION('',(0.,0.,1.));
#1308 = DIRECTION('',(1.,0.,0.));
#1309 = ADVANCED_FACE('',(#1310),#1335,.F.);
#1310 = FACE_BOUND('',#1311,.F.);
#1311 = EDGE_LOOP('',(#1312,#1320,#1328,#1334));
#1312 = ORIENTED_EDGE('',*,*,#1313,.F.);
#1313 = EDGE_CURVE('',#1314,#832,#1316,.T.);
#1314 = VERTEX_POINT('',#1315);
#1315 = CARTESIAN_POINT('',(20.059773090683,3.5,5.375));
#1316 = LINE('',#1317,#1318);
#1317 = CARTESIAN_POINT('',(10.029886545341,3.5,5.375));
#1318 = VECTOR('',#1319,1.);
#1319 = DIRECTION('',(1.,0.,0.));
#1320 = ORIENTED_EDGE('',*,*,#1321,.T.);
#1321 = EDGE_CURVE('',#1314,#1322,#1324,.T.);
#1322 = VERTEX_POINT('',#1323);
#1323 = CARTESIAN_POINT('',(20.059773090683,78.5,5.375));
#1324 = LINE('',#1325,#1326);
#1325 = CARTESIAN_POINT('',(20.059773090683,1.193489751472E-15,5.375));
#1326 = VECTOR('',#1327,1.);
#1327 = DIRECTION('',(0.,1.,-2.22044604925E-16));
#1328 = ORIENTED_EDGE('',*,*,#1329,.T.);
#1329 = EDGE_CURVE('',#1322,#834,#1330,.T.);
#1330 = LINE('',#1331,#1332);
#1331 = CARTESIAN_POINT('',(10.029886545349,78.5,5.375));
#1332 = VECTOR('',#1333,1.);
#1333 = DIRECTION('',(1.,0.,0.));
#1334 = ORIENTED_EDGE('',*,*,#831,.F.);
#1335 = PLANE('',#1336);
#1336 = AXIS2_PLACEMENT_3D('',#1337,#1338,#1339);
#1337 = CARTESIAN_POINT('',(20.059773090683,1.193489751472E-15,5.375));
#1338 = DIRECTION('',(0.,-2.22044604925E-16,-1.));
#1339 = DIRECTION('',(1.,0.,0.));
#1340 = ADVANCED_FACE('',(#1341),#1371,.F.);
#1341 = FACE_BOUND('',#1342,.F.);
#1342 = EDGE_LOOP('',(#1343,#1351,#1352,#1353,#1354,#1355,#1364));
#1343 = ORIENTED_EDGE('',*,*,#1344,.F.);
#1344 = EDGE_CURVE('',#984,#1345,#1347,.T.);
#1345 = VERTEX_POINT('',#1346);
#1346 = CARTESIAN_POINT('',(1.440226909317,78.5,5.375));
#1347 = LINE('',#1348,#1349);
#1348 = CARTESIAN_POINT('',(8.036514682476E-12,78.5,5.375));
#1349 = VECTOR('',#1350,1.);
#1350 = DIRECTION('',(1.,0.,0.));
#1351 = ORIENTED_EDGE('',*,*,#991,.T.);
#1352 = ORIENTED_EDGE('',*,*,#1176,.T.);
#1353 = ORIENTED_EDGE('',*,*,#873,.F.);
#1354 = ORIENTED_EDGE('',*,*,#1329,.F.);
#1355 = ORIENTED_EDGE('',*,*,#1356,.F.);
#1356 = EDGE_CURVE('',#1357,#1322,#1359,.T.);
#1357 = VERTEX_POINT('',#1358);
#1358 = CARTESIAN_POINT('',(10.75,78.5,0.));
#1359 = CIRCLE('',#1360,10.75);
#1360 = AXIS2_PLACEMENT_3D('',#1361,#1362,#1363);
#1361 = CARTESIAN_POINT('',(10.75,78.5,10.75));
#1362 = DIRECTION('',(0.,-1.,2.22044604925E-16));
#1363 = DIRECTION('',(1.,0.,0.));
#1364 = ORIENTED_EDGE('',*,*,#1365,.F.);
#1365 = EDGE_CURVE('',#1345,#1357,#1366,.T.);
#1366 = CIRCLE('',#1367,10.75);
#1367 = AXIS2_PLACEMENT_3D('',#1368,#1369,#1370);
#1368 = CARTESIAN_POINT('',(10.75,78.5,10.75));
#1369 = DIRECTION('',(0.,-1.,2.22044604925E-16));
#1370 = DIRECTION('',(1.,0.,0.));
#1371 = PLANE('',#1372);
#1372 = AXIS2_PLACEMENT_3D('',#1373,#1374,#1375);
#1373 = CARTESIAN_POINT('',(1.607302936495E-11,78.5,0.));
#1374 = DIRECTION('',(0.,1.,0.));
#1375 = DIRECTION('',(1.,0.,0.));
#1376 = ADVANCED_FACE('',(#1377),#1407,.T.);
#1377 = FACE_BOUND('',#1378,.T.);
#1378 = EDGE_LOOP('',(#1379,#1387,#1388,#1389,#1390,#1391,#1400));
#1379 = ORIENTED_EDGE('',*,*,#1380,.F.);
#1380 = EDGE_CURVE('',#974,#1381,#1383,.T.);
#1381 = VERTEX_POINT('',#1382);
#1382 = CARTESIAN_POINT('',(1.440226909317,3.5,5.375));
#1383 = LINE('',#1384,#1385);
#1384 = CARTESIAN_POINT('',(0.,3.5,5.375));
#1385 = VECTOR('',#1386,1.);
#1386 = DIRECTION('',(1.,0.,0.));
#1387 = ORIENTED_EDGE('',*,*,#973,.T.);
#1388 = ORIENTED_EDGE('',*,*,#1056,.T.);
#1389 = ORIENTED_EDGE('',*,*,#841,.F.);
#1390 = ORIENTED_EDGE('',*,*,#1313,.F.);
#1391 = ORIENTED_EDGE('',*,*,#1392,.F.);
#1392 = EDGE_CURVE('',#1393,#1314,#1395,.T.);
#1393 = VERTEX_POINT('',#1394);
#1394 = CARTESIAN_POINT('',(10.75,3.5,0.));
#1395 = CIRCLE('',#1396,10.75);
#1396 = AXIS2_PLACEMENT_3D('',#1397,#1398,#1399);
#1397 = CARTESIAN_POINT('',(10.75,3.5,10.75));
#1398 = DIRECTION('',(0.,-1.,2.22044604925E-16));
#1399 = DIRECTION('',(1.,0.,0.));
#1400 = ORIENTED_EDGE('',*,*,#1401,.F.);
#1401 = EDGE_CURVE('',#1381,#1393,#1402,.T.);
#1402 = CIRCLE('',#1403,10.75);
#1403 = AXIS2_PLACEMENT_3D('',#1404,#1405,#1406);
#1404 = CARTESIAN_POINT('',(10.75,3.5,10.75));
#1405 = DIRECTION('',(0.,-1.,2.22044604925E-16));
#1406 = DIRECTION('',(1.,0.,0.));
#1407 = PLANE('',#1408);
#1408 = AXIS2_PLACEMENT_3D('',#1409,#1410,#1411);
#1409 = CARTESIAN_POINT('',(0.,3.5,0.));
#1410 = DIRECTION('',(0.,1.,0.));
#1411 = DIRECTION('',(1.,0.,0.));
#1412 = ADVANCED_FACE('',(#1413),#1424,.F.);
#1413 = FACE_BOUND('',#1414,.F.);
#1414 = EDGE_LOOP('',(#1415,#1416,#1417,#1418));
#1415 = ORIENTED_EDGE('',*,*,#1380,.F.);
#1416 = ORIENTED_EDGE('',*,*,#983,.T.);
#1417 = ORIENTED_EDGE('',*,*,#1344,.T.);
#1418 = ORIENTED_EDGE('',*,*,#1419,.F.);
#1419 = EDGE_CURVE('',#1381,#1345,#1420,.T.);
#1420 = LINE('',#1421,#1422);
#1421 = CARTESIAN_POINT('',(1.440226909317,1.193489751472E-15,5.375));
#1422 = VECTOR('',#1423,1.);
#1423 = DIRECTION('',(0.,1.,-2.22044604925E-16));
#1424 = PLANE('',#1425);
#1425 = AXIS2_PLACEMENT_3D('',#1426,#1427,#1428);
#1426 = CARTESIAN_POINT('',(0.,1.193489751472E-15,5.375));
#1427 = DIRECTION('',(0.,-2.22044604925E-16,-1.));
#1428 = DIRECTION('',(1.,0.,0.));
#1429 = ADVANCED_FACE('',(#1430),#1572,.F.);
#1430 = FACE_BOUND('',#1431,.T.);
#1431 = EDGE_LOOP('',(#1432,#1502,#1503,#1504));
#1432 = ORIENTED_EDGE('',*,*,#1433,.T.);
#1433 = EDGE_CURVE('',#1434,#1248,#1436,.T.);
#1434 = VERTEX_POINT('',#1435);
#1435 = CARTESIAN_POINT('',(13.875,23.428571428571,0.464239211415));
#1436 = B_SPLINE_CURVE_WITH_KNOTS('',8,(#1437,#1438,#1439,#1440,#1441,
    #1442,#1443,#1444,#1445,#1446,#1447,#1448,#1449,#1450,#1451,#1452,
    #1453,#1454,#1455,#1456,#1457,#1458,#1459,#1460,#1461,#1462,#1463,
    #1464,#1465,#1466,#1467,#1468,#1469,#1470,#1471,#1472,#1473,#1474,
    #1475,#1476,#1477,#1478,#1479,#1480,#1481,#1482,#1483,#1484,#1485,
    #1486,#1487,#1488,#1489,#1490,#1491,#1492,#1493,#1494,#1495,#1496,
    #1497,#1498,#1499,#1500,#1501),.UNSPECIFIED.,.T.,.F.,(9,7,7,7,7,7,7,
    7,7,9),(0.,0.11163853824,0.213141586964,0.297895878843,
    0.399424082592,0.501342214492,0.606717947106,0.696827037873,
    0.797003918659,1.),.UNSPECIFIED.);
#1437 = CARTESIAN_POINT('',(13.875,23.428571428571,0.464239211415));
#1438 = CARTESIAN_POINT('',(13.875,23.678953479181,0.464239211415));
#1439 = CARTESIAN_POINT('',(13.852073249867,23.929085248431,
    0.457273639402));
#1440 = CARTESIAN_POINT('',(13.806298102997,24.177656262606,
    0.443366367615));
#1441 = CARTESIAN_POINT('',(13.737489620806,24.423300188934,
    0.422773616634));
#1442 = CARTESIAN_POINT('',(13.645238627011,24.664502020055,
    0.395991243135));
#1443 = CARTESIAN_POINT('',(13.528946977915,24.899482719323,
    0.363788883793));
#1444 = CARTESIAN_POINT('',(13.387869641473,25.126049839082,
    0.327261327689));
#1445 = CARTESIAN_POINT('',(13.069612736652,25.537203864072,
    0.252088340937));
#1446 = CARTESIAN_POINT('',(12.895525076622,25.725476899859,
    0.21361791854));
#1447 = CARTESIAN_POINT('',(12.698367650041,25.902863902193,
    0.173688581137));
#1448 = CARTESIAN_POINT('',(12.478011046328,26.065754875095,
    0.133913932723));
#1449 = CARTESIAN_POINT('',(12.234761180604,26.210272940132,
    9.62527071312E-02));
#1450 = CARTESIAN_POINT('',(11.969420508099,26.33223319061,
    6.292606027753E-02));
#1451 = CARTESIAN_POINT('',(11.683420657375,26.427054353243,
    3.626204913461E-02));
#1452 = CARTESIAN_POINT('',(11.124917212552,26.541829728831,
    3.523996994952E-03));
#1453 = CARTESIAN_POINT('',(10.86210020662,26.570707712435,
    -4.979537738433E-03));
#1454 = CARTESIAN_POINT('',(10.595343872007,26.573973387941,
    -6.027127200989E-03));
#1455 = CARTESIAN_POINT('',(10.329687607453,26.550936445881,
    8.007337362059E-04));
#1456 = CARTESIAN_POINT('',(10.070186591949,26.502398784912,
    1.509384668935E-02));
#1457 = CARTESIAN_POINT('',(9.821635070513,26.430639186979,
    3.566187162778E-02));
#1458 = CARTESIAN_POINT('',(9.588312843894,26.339449749326,
    6.076339057393E-02));
#1459 = CARTESIAN_POINT('',(9.116762712646,26.108143367129,
    0.121632843215));
#1460 = CARTESIAN_POINT('',(8.882775037017,25.95998772446,0.159035331958
    ));
#1461 = CARTESIAN_POINT('',(8.67188941065,25.794246141571,0.19848659599)
  );
#1462 = CARTESIAN_POINT('',(8.483703311487,25.614506829845,
    0.238105226665));
#1463 = CARTESIAN_POINT('',(8.317567246106,25.423639131155,0.27637455839
    ));
#1464 = CARTESIAN_POINT('',(8.172747633809,25.223931123348,
    0.312114028757));
#1465 = CARTESIAN_POINT('',(8.048540149743,25.01718717312,0.344412014189
    ));
#1466 = CARTESIAN_POINT('',(7.839781367878,24.591603451421,
    0.400852025501));
#1467 = CARTESIAN_POINT('',(7.753673540368,24.369232157119,
    0.425424420622));
#1468 = CARTESIAN_POINT('',(7.68703234939,24.139649884591,0.445242214077
    ));
#1469 = CARTESIAN_POINT('',(7.640546198215,23.904885251501,
    0.459441401264));
#1470 = CARTESIAN_POINT('',(7.614639831012,23.667000819561,
    0.467437729982));
#1471 = CARTESIAN_POINT('',(7.60949737528,23.428070155502,0.468977850315
    ));
#1472 = CARTESIAN_POINT('',(7.625065470993,23.190166011333,
    0.464150761679));
#1473 = CARTESIAN_POINT('',(7.69822782857,22.712587364999,0.442202257759
    ));
#1474 = CARTESIAN_POINT('',(7.757371799936,22.472196927052,
    0.424626606802));
#1475 = CARTESIAN_POINT('',(7.838602802608,22.2353366186,0.400937066264)
  );
#1476 = CARTESIAN_POINT('',(7.942336823666,22.003340648058,
    0.371639885243));
#1477 = CARTESIAN_POINT('',(8.069213971678,21.777826611696,
    0.337468921174));
#1478 = CARTESIAN_POINT('',(8.220036533838,21.560822963064,
    0.299447554191));
#1479 = CARTESIAN_POINT('',(8.395682984761,21.354939507882,
    0.258960752105));
#1480 = CARTESIAN_POINT('',(8.769110465614,20.999970218019,
    0.182623585463));
#1481 = CARTESIAN_POINT('',(8.955494204385,20.85125859926,0.14787186957)
  );
#1482 = CARTESIAN_POINT('',(9.154582507647,20.718952665467,
    0.114798565015));
#1483 = CARTESIAN_POINT('',(9.364661919484,20.604314521876,
    8.459931701509E-02));
#1484 = CARTESIAN_POINT('',(9.583891410193,20.508377041939,
    5.833231167076E-02));
#1485 = CARTESIAN_POINT('',(9.810334637448,20.431942602568,
    3.685186523778E-02));
#1486 = CARTESIAN_POINT('',(10.041985673055,20.375578338398,
    2.076633788301E-02));
#1487 = CARTESIAN_POINT('',(10.537824946182,20.29961855569,
    -1.081537490499E-03));
#1488 = CARTESIAN_POINT('',(10.804458244806,20.284573823566,
    -5.564562982596E-03));
#1489 = CARTESIAN_POINT('',(11.072084781686,20.295780216882,
    -2.313262161338E-03));
#1490 = CARTESIAN_POINT('',(11.335934906272,20.333152799812,
    8.721509616854E-03));
#1491 = CARTESIAN_POINT('',(11.591333947104,20.395284498874,
    2.68084783152E-02));
#1492 = CARTESIAN_POINT('',(11.833951649511,20.479455601596,
    5.053921285031E-02));
#1493 = CARTESIAN_POINT('',(12.06002861581,20.58159919146,
    7.80812381003E-02));
#1494 = CARTESIAN_POINT('',(12.685096478682,20.928540158539,
    0.167154248569));
#1495 = CARTESIAN_POINT('',(13.036796417331,21.219586159302,
    0.236465198318));
#1496 = CARTESIAN_POINT('',(13.322464452354,21.548866644215,
    0.305256973983));
#1497 = CARTESIAN_POINT('',(13.545833435839,21.903251322534,
    0.366029560334));
#1498 = CARTESIAN_POINT('',(13.710648227905,22.273720297136,
    0.414310086939));
#1499 = CARTESIAN_POINT('',(13.819871718669,22.654140013483,
    0.447489442962));
#1500 = CARTESIAN_POINT('',(13.875,23.040318452284,0.464239211415));
#1501 = CARTESIAN_POINT('',(13.875,23.428571428571,0.464239211415));
#1502 = ORIENTED_EDGE('',*,*,#1256,.F.);
#1503 = ORIENTED_EDGE('',*,*,#1238,.F.);
#1504 = ORIENTED_EDGE('',*,*,#1505,.T.);
#1505 = EDGE_CURVE('',#1239,#1434,#1506,.T.);
#1506 = B_SPLINE_CURVE_WITH_KNOTS('',8,(#1507,#1508,#1509,#1510,#1511,
    #1512,#1513,#1514,#1515,#1516,#1517,#1518,#1519,#1520,#1521,#1522,
    #1523,#1524,#1525,#1526,#1527,#1528,#1529,#1530,#1531,#1532,#1533,
    #1534,#1535,#1536,#1537,#1538,#1539,#1540,#1541,#1542,#1543,#1544,
    #1545,#1546,#1547,#1548,#1549,#1550,#1551,#1552,#1553,#1554,#1555,
    #1556,#1557,#1558,#1559,#1560,#1561,#1562,#1563,#1564,#1565,#1566,
    #1567,#1568,#1569,#1570,#1571),.UNSPECIFIED.,.T.,.F.,(9,7,7,7,7,7,7,
    7,7,9),(0.,0.11163853824,0.213141586964,0.297895878843,
    0.399424082592,0.501342214492,0.606717947106,0.696827037873,
    0.797003918659,1.),.UNSPECIFIED.);
#1507 = CARTESIAN_POINT('',(13.875,23.428571428571,0.464239211415));
#1508 = CARTESIAN_POINT('',(13.875,23.678953479181,0.464239211415));
#1509 = CARTESIAN_POINT('',(13.852073249867,23.929085248431,
    0.457273639402));
#1510 = CARTESIAN_POINT('',(13.806298102997,24.177656262606,
    0.443366367615));
#1511 = CARTESIAN_POINT('',(13.737489620806,24.423300188934,
    0.422773616634));
#1512 = CARTESIAN_POINT('',(13.645238627011,24.664502020055,
    0.395991243135));
#1513 = CARTESIAN_POINT('',(13.528946977915,24.899482719323,
    0.363788883793));
#1514 = CARTESIAN_POINT('',(13.387869641473,25.126049839082,
    0.327261327689));
#1515 = CARTESIAN_POINT('',(13.069612736652,25.537203864072,
    0.252088340937));
#1516 = CARTESIAN_POINT('',(12.895525076622,25.725476899859,
    0.21361791854));
#1517 = CARTESIAN_POINT('',(12.698367650041,25.902863902193,
    0.173688581137));
#1518 = CARTESIAN_POINT('',(12.478011046328,26.065754875095,
    0.133913932723));
#1519 = CARTESIAN_POINT('',(12.234761180604,26.210272940132,
    9.62527071312E-02));
#1520 = CARTESIAN_POINT('',(11.969420508099,26.33223319061,
    6.292606027753E-02));
#1521 = CARTESIAN_POINT('',(11.683420657375,26.427054353243,
    3.626204913461E-02));
#1522 = CARTESIAN_POINT('',(11.124917212552,26.541829728831,
    3.523996994952E-03));
#1523 = CARTESIAN_POINT('',(10.86210020662,26.570707712435,
    -4.979537738433E-03));
#1524 = CARTESIAN_POINT('',(10.595343872007,26.573973387941,
    -6.027127200989E-03));
#1525 = CARTESIAN_POINT('',(10.329687607453,26.550936445881,
    8.007337362059E-04));
#1526 = CARTESIAN_POINT('',(10.070186591949,26.502398784912,
    1.509384668935E-02));
#1527 = CARTESIAN_POINT('',(9.821635070513,26.430639186979,
    3.566187162778E-02));
#1528 = CARTESIAN_POINT('',(9.588312843894,26.339449749326,
    6.076339057393E-02));
#1529 = CARTESIAN_POINT('',(9.116762712646,26.108143367129,
    0.121632843215));
#1530 = CARTESIAN_POINT('',(8.882775037017,25.95998772446,0.159035331958
    ));
#1531 = CARTESIAN_POINT('',(8.67188941065,25.794246141571,0.19848659599)
  );
#1532 = CARTESIAN_POINT('',(8.483703311487,25.614506829845,
    0.238105226665));
#1533 = CARTESIAN_POINT('',(8.317567246106,25.423639131155,0.27637455839
    ));
#1534 = CARTESIAN_POINT('',(8.172747633809,25.223931123348,
    0.312114028757));
#1535 = CARTESIAN_POINT('',(8.048540149743,25.01718717312,0.344412014189
    ));
#1536 = CARTESIAN_POINT('',(7.839781367878,24.591603451421,
    0.400852025501));
#1537 = CARTESIAN_POINT('',(7.753673540368,24.369232157119,
    0.425424420622));
#1538 = CARTESIAN_POINT('',(7.68703234939,24.139649884591,0.445242214077
    ));
#1539 = CARTESIAN_POINT('',(7.640546198215,23.904885251501,
    0.459441401264));
#1540 = CARTESIAN_POINT('',(7.614639831012,23.667000819561,
    0.467437729982));
#1541 = CARTESIAN_POINT('',(7.60949737528,23.428070155502,0.468977850315
    ));
#1542 = CARTESIAN_POINT('',(7.625065470993,23.190166011333,
    0.464150761679));
#1543 = CARTESIAN_POINT('',(7.69822782857,22.712587364999,0.442202257759
    ));
#1544 = CARTESIAN_POINT('',(7.757371799936,22.472196927052,
    0.424626606802));
#1545 = CARTESIAN_POINT('',(7.838602802608,22.2353366186,0.400937066264)
  );
#1546 = CARTESIAN_POINT('',(7.942336823666,22.003340648058,
    0.371639885243));
#1547 = CARTESIAN_POINT('',(8.069213971678,21.777826611696,
    0.337468921174));
#1548 = CARTESIAN_POINT('',(8.220036533838,21.560822963064,
    0.299447554191));
#1549 = CARTESIAN_POINT('',(8.395682984761,21.354939507882,
    0.258960752105));
#1550 = CARTESIAN_POINT('',(8.769110465614,20.999970218019,
    0.182623585463));
#1551 = CARTESIAN_POINT('',(8.955494204385,20.85125859926,0.14787186957)
  );
#1552 = CARTESIAN_POINT('',(9.154582507647,20.718952665467,
    0.114798565015));
#1553 = CARTESIAN_POINT('',(9.364661919484,20.604314521876,
    8.459931701509E-02));
#1554 = CARTESIAN_POINT('',(9.583891410193,20.508377041939,
    5.833231167076E-02));
#1555 = CARTESIAN_POINT('',(9.810334637448,20.431942602568,
    3.685186523778E-02));
#1556 = CARTESIAN_POINT('',(10.041985673055,20.375578338398,
    2.076633788301E-02));
#1557 = CARTESIAN_POINT('',(10.537824946182,20.29961855569,
    -1.081537490499E-03));
#1558 = CARTESIAN_POINT('',(10.804458244806,20.284573823566,
    -5.564562982596E-03));
#1559 = CARTESIAN_POINT('',(11.072084781686,20.295780216882,
    -2.313262161338E-03));
#1560 = CARTESIAN_POINT('',(11.335934906272,20.333152799812,
    8.721509616854E-03));
#1561 = CARTESIAN_POINT('',(11.591333947104,20.395284498874,
    2.68084783152E-02));
#1562 = CARTESIAN_POINT('',(11.833951649511,20.479455601596,
    5.053921285031E-02));
#1563 = CARTESIAN_POINT('',(12.06002861581,20.58159919146,
    7.80812381003E-02));
#1564 = CARTESIAN_POINT('',(12.685096478682,20.928540158539,
    0.167154248569));
#1565 = CARTESIAN_POINT('',(13.036796417331,21.219586159302,
    0.236465198318));
#1566 = CARTESIAN_POINT('',(13.322464452354,21.548866644215,
    0.305256973983));
#1567 = CARTESIAN_POINT('',(13.545833435839,21.903251322534,
    0.366029560334));
#1568 = CARTESIAN_POINT('',(13.710648227905,22.273720297136,
    0.414310086939));
#1569 = CARTESIAN_POINT('',(13.819871718669,22.654140013483,
    0.447489442962));
#1570 = CARTESIAN_POINT('',(13.875,23.040318452284,0.464239211415));
#1571 = CARTESIAN_POINT('',(13.875,23.428571428571,0.464239211415));
#1572 = CYLINDRICAL_SURFACE('',#1573,3.125);
#1573 = AXIS2_PLACEMENT_3D('',#1574,#1575,#1576);
#1574 = CARTESIAN_POINT('',(10.75,23.428571428571,0.));
#1575 = DIRECTION('',(-0.,-0.,-1.));
#1576 = DIRECTION('',(1.,0.,0.));
#1577 = ADVANCED_FACE('',(#1578),#1649,.F.);
#1578 = FACE_BOUND('',#1579,.T.);
#1579 = EDGE_LOOP('',(#1580,#1581));
#1580 = ORIENTED_EDGE('',*,*,#1247,.F.);
#1581 = ORIENTED_EDGE('',*,*,#1582,.T.);
#1582 = EDGE_CURVE('',#1248,#1239,#1583,.T.);
#1583 = B_SPLINE_CURVE_WITH_KNOTS('',8,(#1584,#1585,#1586,#1587,#1588,
    #1589,#1590,#1591,#1592,#1593,#1594,#1595,#1596,#1597,#1598,#1599,
    #1600,#1601,#1602,#1603,#1604,#1605,#1606,#1607,#1608,#1609,#1610,
    #1611,#1612,#1613,#1614,#1615,#1616,#1617,#1618,#1619,#1620,#1621,
    #1622,#1623,#1624,#1625,#1626,#1627,#1628,#1629,#1630,#1631,#1632,
    #1633,#1634,#1635,#1636,#1637,#1638,#1639,#1640,#1641,#1642,#1643,
    #1644,#1645,#1646,#1647,#1648),.UNSPECIFIED.,.T.,.F.,(9,7,7,7,7,7,7,
    7,7,9),(0.,0.11163853824,0.213141586964,0.297895878843,
    0.399424082592,0.501342214492,0.606717947106,0.696827037873,
    0.797003918659,1.),.UNSPECIFIED.);
#1584 = CARTESIAN_POINT('',(13.875,23.428571428571,0.464239211415));
#1585 = CARTESIAN_POINT('',(13.875,23.678953479181,0.464239211415));
#1586 = CARTESIAN_POINT('',(13.852073249867,23.929085248431,
    0.457273639402));
#1587 = CARTESIAN_POINT('',(13.806298102997,24.177656262606,
    0.443366367615));
#1588 = CARTESIAN_POINT('',(13.737489620806,24.423300188934,
    0.422773616634));
#1589 = CARTESIAN_POINT('',(13.645238627011,24.664502020055,
    0.395991243135));
#1590 = CARTESIAN_POINT('',(13.528946977915,24.899482719323,
    0.363788883793));
#1591 = CARTESIAN_POINT('',(13.387869641473,25.126049839082,
    0.327261327689));
#1592 = CARTESIAN_POINT('',(13.069612736652,25.537203864072,
    0.252088340937));
#1593 = CARTESIAN_POINT('',(12.895525076622,25.725476899859,
    0.21361791854));
#1594 = CARTESIAN_POINT('',(12.698367650041,25.902863902193,
    0.173688581137));
#1595 = CARTESIAN_POINT('',(12.478011046328,26.065754875095,
    0.133913932723));
#1596 = CARTESIAN_POINT('',(12.234761180604,26.210272940132,
    9.62527071312E-02));
#1597 = CARTESIAN_POINT('',(11.969420508099,26.33223319061,
    6.292606027753E-02));
#1598 = CARTESIAN_POINT('',(11.683420657375,26.427054353243,
    3.626204913461E-02));
#1599 = CARTESIAN_POINT('',(11.124917212552,26.541829728831,
    3.523996994952E-03));
#1600 = CARTESIAN_POINT('',(10.86210020662,26.570707712435,
    -4.979537738433E-03));
#1601 = CARTESIAN_POINT('',(10.595343872007,26.573973387941,
    -6.027127200989E-03));
#1602 = CARTESIAN_POINT('',(10.329687607453,26.550936445881,
    8.007337362059E-04));
#1603 = CARTESIAN_POINT('',(10.070186591949,26.502398784912,
    1.509384668935E-02));
#1604 = CARTESIAN_POINT('',(9.821635070513,26.430639186979,
    3.566187162778E-02));
#1605 = CARTESIAN_POINT('',(9.588312843894,26.339449749326,
    6.076339057393E-02));
#1606 = CARTESIAN_POINT('',(9.116762712646,26.108143367129,
    0.121632843215));
#1607 = CARTESIAN_POINT('',(8.882775037017,25.95998772446,0.159035331958
    ));
#1608 = CARTESIAN_POINT('',(8.67188941065,25.794246141571,0.19848659599)
  );
#1609 = CARTESIAN_POINT('',(8.483703311487,25.614506829845,
    0.238105226665));
#1610 = CARTESIAN_POINT('',(8.317567246106,25.423639131155,0.27637455839
    ));
#1611 = CARTESIAN_POINT('',(8.172747633809,25.223931123348,
    0.312114028757));
#1612 = CARTESIAN_POINT('',(8.048540149743,25.01718717312,0.344412014189
    ));
#1613 = CARTESIAN_POINT('',(7.839781367878,24.591603451421,
    0.400852025501));
#1614 = CARTESIAN_POINT('',(7.753673540368,24.369232157119,
    0.425424420622));
#1615 = CARTESIAN_POINT('',(7.68703234939,24.139649884591,0.445242214077
    ));
#1616 = CARTESIAN_POINT('',(7.640546198215,23.904885251501,
    0.459441401264));
#1617 = CARTESIAN_POINT('',(7.614639831012,23.667000819561,
    0.467437729982));
#1618 = CARTESIAN_POINT('',(7.60949737528,23.428070155502,0.468977850315
    ));
#1619 = CARTESIAN_POINT('',(7.625065470993,23.190166011333,
    0.464150761679));
#1620 = CARTESIAN_POINT('',(7.69822782857,22.712587364999,0.442202257759
    ));
#1621 = CARTESIAN_POINT('',(7.757371799936,22.472196927052,
    0.424626606802));
#1622 = CARTESIAN_POINT('',(7.838602802608,22.2353366186,0.400937066264)
  );
#1623 = CARTESIAN_POINT('',(7.942336823666,22.003340648058,
    0.371639885243));
#1624 = CARTESIAN_POINT('',(8.069213971678,21.777826611696,
    0.337468921174));
#1625 = CARTESIAN_POINT('',(8.220036533838,21.560822963064,
    0.299447554191));
#1626 = CARTESIAN_POINT('',(8.395682984761,21.354939507882,
    0.258960752105));
#1627 = CARTESIAN_POINT('',(8.769110465614,20.999970218019,
    0.182623585463));
#1628 = CARTESIAN_POINT('',(8.955494204385,20.85125859926,0.14787186957)
  );
#1629 = CARTESIAN_POINT('',(9.154582507647,20.718952665467,
    0.114798565015));
#1630 = CARTESIAN_POINT('',(9.364661919484,20.604314521876,
    8.459931701509E-02));
#1631 = CARTESIAN_POINT('',(9.583891410193,20.508377041939,
    5.833231167076E-02));
#1632 = CARTESIAN_POINT('',(9.810334637448,20.431942602568,
    3.685186523778E-02));
#1633 = CARTESIAN_POINT('',(10.041985673055,20.375578338398,
    2.076633788301E-02));
#1634 = CARTESIAN_POINT('',(10.537824946182,20.29961855569,
    -1.081537490499E-03));
#1635 = CARTESIAN_POINT('',(10.804458244806,20.284573823566,
    -5.564562982596E-03));
#1636 = CARTESIAN_POINT('',(11.072084781686,20.295780216882,
    -2.313262161338E-03));
#1637 = CARTESIAN_POINT('',(11.335934906272,20.333152799812,
    8.721509616854E-03));
#1638 = CARTESIAN_POINT('',(11.591333947104,20.395284498874,
    2.68084783152E-02));
#1639 = CARTESIAN_POINT('',(11.833951649511,20.479455601596,
    5.053921285031E-02));
#1640 = CARTESIAN_POINT('',(12.06002861581,20.58159919146,
    7.80812381003E-02));
#1641 = CARTESIAN_POINT('',(12.685096478682,20.928540158539,
    0.167154248569));
#1642 = CARTESIAN_POINT('',(13.036796417331,21.219586159302,
    0.236465198318));
#1643 = CARTESIAN_POINT('',(13.322464452354,21.548866644215,
    0.305256973983));
#1644 = CARTESIAN_POINT('',(13.545833435839,21.903251322534,
    0.366029560334));
#1645 = CARTESIAN_POINT('',(13.710648227905,22.273720297136,
    0.414310086939));
#1646 = CARTESIAN_POINT('',(13.819871718669,22.654140013483,
    0.447489442962));
#1647 = CARTESIAN_POINT('',(13.875,23.040318452284,0.464239211415));
#1648 = CARTESIAN_POINT('',(13.875,23.428571428571,0.464239211415));
#1649 = CYLINDRICAL_SURFACE('',#1650,3.125);
#1650 = AXIS2_PLACEMENT_3D('',#1651,#1652,#1653);
#1651 = CARTESIAN_POINT('',(10.75,23.428571428571,0.));
#1652 = DIRECTION('',(-0.,-0.,-1.));
#1653 = DIRECTION('',(1.,0.,0.));
#1654 = ADVANCED_FACE('',(#1655),#1797,.F.);
#1655 = FACE_BOUND('',#1656,.T.);
#1656 = EDGE_LOOP('',(#1657,#1727,#1728,#1729));
#1657 = ORIENTED_EDGE('',*,*,#1658,.T.);
#1658 = EDGE_CURVE('',#1659,#1290,#1661,.T.);
#1659 = VERTEX_POINT('',#1660);
#1660 = CARTESIAN_POINT('',(13.875,58.571428571429,0.464239211415));
#1661 = B_SPLINE_CURVE_WITH_KNOTS('',8,(#1662,#1663,#1664,#1665,#1666,
    #1667,#1668,#1669,#1670,#1671,#1672,#1673,#1674,#1675,#1676,#1677,
    #1678,#1679,#1680,#1681,#1682,#1683,#1684,#1685,#1686,#1687,#1688,
    #1689,#1690,#1691,#1692,#1693,#1694,#1695,#1696,#1697,#1698,#1699,
    #1700,#1701,#1702,#1703,#1704,#1705,#1706,#1707,#1708,#1709,#1710,
    #1711,#1712,#1713,#1714,#1715,#1716,#1717,#1718,#1719,#1720,#1721,
    #1722,#1723,#1724,#1725,#1726),.UNSPECIFIED.,.T.,.F.,(9,7,7,7,7,7,7,
    7,7,9),(0.,0.11163853473,0.213141583041,0.297895874578,
    0.399424077917,0.501342209405,0.606717941592,0.696827032864,
    0.797003915305,1.),.UNSPECIFIED.);
#1662 = CARTESIAN_POINT('',(13.875,58.571428571429,0.464239211415));
#1663 = CARTESIAN_POINT('',(13.875,58.82181062893,0.464239211415));
#1664 = CARTESIAN_POINT('',(13.852073248522,59.071942379221,
    0.457273639121));
#1665 = CARTESIAN_POINT('',(13.806298107559,59.320513406489,
    0.443366368675));
#1666 = CARTESIAN_POINT('',(13.737489617224,59.566157341975,
    0.42277361575));
#1667 = CARTESIAN_POINT('',(13.645238622475,59.807359161873,
    0.395991242066));
#1668 = CARTESIAN_POINT('',(13.528946986962,60.042339852414,
    0.36378888596));
#1669 = CARTESIAN_POINT('',(13.387869636911,60.268906987832,
    0.327261326611));
#1670 = CARTESIAN_POINT('',(13.069612736649,60.680061006933,
    0.252088340937));
#1671 = CARTESIAN_POINT('',(12.89552507662,60.868334042717,
    0.213617918539));
#1672 = CARTESIAN_POINT('',(12.698367650043,61.045721045048,
    0.173688581137));
#1673 = CARTESIAN_POINT('',(12.478011046331,61.208612017949,
    0.133913932724));
#1674 = CARTESIAN_POINT('',(12.234761180606,61.353130082989,
    9.625270713125E-02));
#1675 = CARTESIAN_POINT('',(11.969420508098,61.475090333468,
    6.292606027717E-02));
#1676 = CARTESIAN_POINT('',(11.683420657371,61.569911496101,
    3.626204913434E-02));
#1677 = CARTESIAN_POINT('',(11.124917212552,61.684686871689,
    3.523996994942E-03));
#1678 = CARTESIAN_POINT('',(10.862100206621,61.713564855293,
    -4.979537738438E-03));
#1679 = CARTESIAN_POINT('',(10.595343872007,61.716830530798,
    -6.027127200993E-03));
#1680 = CARTESIAN_POINT('',(10.329687607453,61.693793588738,
    8.007337361906E-04));
#1681 = CARTESIAN_POINT('',(10.070186591949,61.645255927769,
    1.509384668934E-02));
#1682 = CARTESIAN_POINT('',(9.821635070513,61.573496329836,
    3.566187162778E-02));
#1683 = CARTESIAN_POINT('',(9.588312843895,61.482306892183,
    6.076339057391E-02));
#1684 = CARTESIAN_POINT('',(9.116762712646,61.251000509986,
    0.121632843215));
#1685 = CARTESIAN_POINT('',(8.882775037017,61.102844867318,
    0.159035331958));
#1686 = CARTESIAN_POINT('',(8.67188941065,60.937103284428,0.19848659599)
  );
#1687 = CARTESIAN_POINT('',(8.483703311487,60.757363972702,
    0.238105226665));
#1688 = CARTESIAN_POINT('',(8.317567246106,60.566496274013,
    0.276374558389));
#1689 = CARTESIAN_POINT('',(8.172747633809,60.366788266205,
    0.312114028757));
#1690 = CARTESIAN_POINT('',(8.048540149743,60.160044315977,
    0.344412014189));
#1691 = CARTESIAN_POINT('',(7.839781367878,59.734460594278,
    0.400852025501));
#1692 = CARTESIAN_POINT('',(7.753673540368,59.512089299976,
    0.425424420622));
#1693 = CARTESIAN_POINT('',(7.68703234939,59.282507027448,0.445242214077
    ));
#1694 = CARTESIAN_POINT('',(7.640546198215,59.047742394358,
    0.459441401264));
#1695 = CARTESIAN_POINT('',(7.614639831012,58.809857962418,
    0.467437729981));
#1696 = CARTESIAN_POINT('',(7.60949737528,58.570927298359,0.468977850315
    ));
#1697 = CARTESIAN_POINT('',(7.625065470993,58.33302315419,0.464150761679
    ));
#1698 = CARTESIAN_POINT('',(7.69822782857,57.855444507856,0.442202257759
    ));
#1699 = CARTESIAN_POINT('',(7.757371799936,57.61505406991,0.424626606802
    ));
#1700 = CARTESIAN_POINT('',(7.838602802609,57.378193761457,
    0.400937066264));
#1701 = CARTESIAN_POINT('',(7.942336823666,57.146197790915,
    0.371639885243));
#1702 = CARTESIAN_POINT('',(8.069213971677,56.920683754554,
    0.337468921174));
#1703 = CARTESIAN_POINT('',(8.220036533838,56.703680105921,
    0.299447554191));
#1704 = CARTESIAN_POINT('',(8.395682984761,56.49779665074,0.258960752105
    ));
#1705 = CARTESIAN_POINT('',(8.769110467272,56.142827359299,
    0.182623585124));
#1706 = CARTESIAN_POINT('',(8.95549420089,55.994115744154,0.147871870039
    ));
#1707 = CARTESIAN_POINT('',(9.154582508074,55.861809808849,
    0.114798565112));
#1708 = CARTESIAN_POINT('',(9.364661922963,55.747171663085,
    8.459931662218E-02));
#1709 = CARTESIAN_POINT('',(9.583891409803,55.651234184244,
    5.833231156175E-02));
#1710 = CARTESIAN_POINT('',(9.810334633525,55.574799746893,
    3.685186559779E-02));
#1711 = CARTESIAN_POINT('',(10.041985675622,55.518435480862,
    2.076633776991E-02));
#1712 = CARTESIAN_POINT('',(10.537824946182,55.442475698548,
    -1.081537490512E-03));
#1713 = CARTESIAN_POINT('',(10.804458244806,55.427430966423,
    -5.564562982591E-03));
#1714 = CARTESIAN_POINT('',(11.072084781686,55.438637359739,
    -2.313262161352E-03));
#1715 = CARTESIAN_POINT('',(11.335934906272,55.476009942669,
    8.721509616842E-03));
#1716 = CARTESIAN_POINT('',(11.591333947104,55.538141641731,
    2.68084783152E-02));
#1717 = CARTESIAN_POINT('',(11.833951649511,55.622312744453,
    5.05392128503E-02));
#1718 = CARTESIAN_POINT('',(12.060028615809,55.724456334317,
    7.808123810029E-02));
#1719 = CARTESIAN_POINT('',(12.685096478682,56.071397301396,
    0.167154248569));
#1720 = CARTESIAN_POINT('',(13.036796417333,56.36244330216,
    0.236465198318));
#1721 = CARTESIAN_POINT('',(13.322464452349,56.69172378707,
    0.305256973982));
#1722 = CARTESIAN_POINT('',(13.545833435846,57.046108465395,
    0.366029560335));
#1723 = CARTESIAN_POINT('',(13.710648227901,57.416577439992,
    0.414310086938));
#1724 = CARTESIAN_POINT('',(13.81987171867,57.79699715634,0.447489442963
    ));
#1725 = CARTESIAN_POINT('',(13.875,58.183175595141,0.464239211415));
#1726 = CARTESIAN_POINT('',(13.875,58.571428571429,0.464239211415));
#1727 = ORIENTED_EDGE('',*,*,#1298,.F.);
#1728 = ORIENTED_EDGE('',*,*,#1280,.F.);
#1729 = ORIENTED_EDGE('',*,*,#1730,.T.);
#1730 = EDGE_CURVE('',#1281,#1659,#1731,.T.);
#1731 = B_SPLINE_CURVE_WITH_KNOTS('',8,(#1732,#1733,#1734,#1735,#1736,
    #1737,#1738,#1739,#1740,#1741,#1742,#1743,#1744,#1745,#1746,#1747,
    #1748,#1749,#1750,#1751,#1752,#1753,#1754,#1755,#1756,#1757,#1758,
    #1759,#1760,#1761,#1762,#1763,#1764,#1765,#1766,#1767,#1768,#1769,
    #1770,#1771,#1772,#1773,#1774,#1775,#1776,#1777,#1778,#1779,#1780,
    #1781,#1782,#1783,#1784,#1785,#1786,#1787,#1788,#1789,#1790,#1791,
    #1792,#1793,#1794,#1795,#1796),.UNSPECIFIED.,.T.,.F.,(9,7,7,7,7,7,7,
    7,7,9),(0.,0.11163853473,0.213141583041,0.297895874578,
    0.399424077917,0.501342209405,0.606717941592,0.696827032864,
    0.797003915305,1.),.UNSPECIFIED.);
#1732 = CARTESIAN_POINT('',(13.875,58.571428571429,0.464239211415));
#1733 = CARTESIAN_POINT('',(13.875,58.82181062893,0.464239211415));
#1734 = CARTESIAN_POINT('',(13.852073248522,59.071942379221,
    0.457273639121));
#1735 = CARTESIAN_POINT('',(13.806298107559,59.320513406489,
    0.443366368675));
#1736 = CARTESIAN_POINT('',(13.737489617224,59.566157341975,
    0.42277361575));
#1737 = CARTESIAN_POINT('',(13.645238622475,59.807359161873,
    0.395991242066));
#1738 = CARTESIAN_POINT('',(13.528946986962,60.042339852414,
    0.36378888596));
#1739 = CARTESIAN_POINT('',(13.387869636911,60.268906987832,
    0.327261326611));
#1740 = CARTESIAN_POINT('',(13.069612736649,60.680061006933,
    0.252088340937));
#1741 = CARTESIAN_POINT('',(12.89552507662,60.868334042717,
    0.213617918539));
#1742 = CARTESIAN_POINT('',(12.698367650043,61.045721045048,
    0.173688581137));
#1743 = CARTESIAN_POINT('',(12.478011046331,61.208612017949,
    0.133913932724));
#1744 = CARTESIAN_POINT('',(12.234761180606,61.353130082989,
    9.625270713125E-02));
#1745 = CARTESIAN_POINT('',(11.969420508098,61.475090333468,
    6.292606027717E-02));
#1746 = CARTESIAN_POINT('',(11.683420657371,61.569911496101,
    3.626204913434E-02));
#1747 = CARTESIAN_POINT('',(11.124917212552,61.684686871689,
    3.523996994942E-03));
#1748 = CARTESIAN_POINT('',(10.862100206621,61.713564855293,
    -4.979537738438E-03));
#1749 = CARTESIAN_POINT('',(10.595343872007,61.716830530798,
    -6.027127200993E-03));
#1750 = CARTESIAN_POINT('',(10.329687607453,61.693793588738,
    8.007337361906E-04));
#1751 = CARTESIAN_POINT('',(10.070186591949,61.645255927769,
    1.509384668934E-02));
#1752 = CARTESIAN_POINT('',(9.821635070513,61.573496329836,
    3.566187162778E-02));
#1753 = CARTESIAN_POINT('',(9.588312843895,61.482306892183,
    6.076339057391E-02));
#1754 = CARTESIAN_POINT('',(9.116762712646,61.251000509986,
    0.121632843215));
#1755 = CARTESIAN_POINT('',(8.882775037017,61.102844867318,
    0.159035331958));
#1756 = CARTESIAN_POINT('',(8.67188941065,60.937103284428,0.19848659599)
  );
#1757 = CARTESIAN_POINT('',(8.483703311487,60.757363972702,
    0.238105226665));
#1758 = CARTESIAN_POINT('',(8.317567246106,60.566496274013,
    0.276374558389));
#1759 = CARTESIAN_POINT('',(8.172747633809,60.366788266205,
    0.312114028757));
#1760 = CARTESIAN_POINT('',(8.048540149743,60.160044315977,
    0.344412014189));
#1761 = CARTESIAN_POINT('',(7.839781367878,59.734460594278,
    0.400852025501));
#1762 = CARTESIAN_POINT('',(7.753673540368,59.512089299976,
    0.425424420622));
#1763 = CARTESIAN_POINT('',(7.68703234939,59.282507027448,0.445242214077
    ));
#1764 = CARTESIAN_POINT('',(7.640546198215,59.047742394358,
    0.459441401264));
#1765 = CARTESIAN_POINT('',(7.614639831012,58.809857962418,
    0.467437729981));
#1766 = CARTESIAN_POINT('',(7.60949737528,58.570927298359,0.468977850315
    ));
#1767 = CARTESIAN_POINT('',(7.625065470993,58.33302315419,0.464150761679
    ));
#1768 = CARTESIAN_POINT('',(7.69822782857,57.855444507856,0.442202257759
    ));
#1769 = CARTESIAN_POINT('',(7.757371799936,57.61505406991,0.424626606802
    ));
#1770 = CARTESIAN_POINT('',(7.838602802609,57.378193761457,
    0.400937066264));
#1771 = CARTESIAN_POINT('',(7.942336823666,57.146197790915,
    0.371639885243));
#1772 = CARTESIAN_POINT('',(8.069213971677,56.920683754554,
    0.337468921174));
#1773 = CARTESIAN_POINT('',(8.220036533838,56.703680105921,
    0.299447554191));
#1774 = CARTESIAN_POINT('',(8.395682984761,56.49779665074,0.258960752105
    ));
#1775 = CARTESIAN_POINT('',(8.769110467272,56.142827359299,
    0.182623585124));
#1776 = CARTESIAN_POINT('',(8.95549420089,55.994115744154,0.147871870039
    ));
#1777 = CARTESIAN_POINT('',(9.154582508074,55.861809808849,
    0.114798565112));
#1778 = CARTESIAN_POINT('',(9.364661922963,55.747171663085,
    8.459931662218E-02));
#1779 = CARTESIAN_POINT('',(9.583891409803,55.651234184244,
    5.833231156175E-02));
#1780 = CARTESIAN_POINT('',(9.810334633525,55.574799746893,
    3.685186559779E-02));
#1781 = CARTESIAN_POINT('',(10.041985675622,55.518435480862,
    2.076633776991E-02));
#1782 = CARTESIAN_POINT('',(10.537824946182,55.442475698548,
    -1.081537490512E-03));
#1783 = CARTESIAN_POINT('',(10.804458244806,55.427430966423,
    -5.564562982591E-03));
#1784 = CARTESIAN_POINT('',(11.072084781686,55.438637359739,
    -2.313262161352E-03));
#1785 = CARTESIAN_POINT('',(11.335934906272,55.476009942669,
    8.721509616842E-03));
#1786 = CARTESIAN_POINT('',(11.591333947104,55.538141641731,
    2.68084783152E-02));
#1787 = CARTESIAN_POINT('',(11.833951649511,55.622312744453,
    5.05392128503E-02));
#1788 = CARTESIAN_POINT('',(12.060028615809,55.724456334317,
    7.808123810029E-02));
#1789 = CARTESIAN_POINT('',(12.685096478682,56.071397301396,
    0.167154248569));
#1790 = CARTESIAN_POINT('',(13.036796417333,56.36244330216,
    0.236465198318));
#1791 = CARTESIAN_POINT('',(13.322464452349,56.69172378707,
    0.305256973982));
#1792 = CARTESIAN_POINT('',(13.545833435846,57.046108465395,
    0.366029560335));
#1793 = CARTESIAN_POINT('',(13.710648227901,57.416577439992,
    0.414310086938));
#1794 = CARTESIAN_POINT('',(13.81987171867,57.79699715634,0.447489442963
    ));
#1795 = CARTESIAN_POINT('',(13.875,58.183175595141,0.464239211415));
#1796 = CARTESIAN_POINT('',(13.875,58.571428571429,0.464239211415));
#1797 = CYLINDRICAL_SURFACE('',#1798,3.125);
#1798 = AXIS2_PLACEMENT_3D('',#1799,#1800,#1801);
#1799 = CARTESIAN_POINT('',(10.75,58.571428571429,0.));
#1800 = DIRECTION('',(-0.,-0.,-1.));
#1801 = DIRECTION('',(1.,0.,0.));
#1802 = ADVANCED_FACE('',(#1803),#1874,.F.);
#1803 = FACE_BOUND('',#1804,.T.);
#1804 = EDGE_LOOP('',(#1805,#1806));
#1805 = ORIENTED_EDGE('',*,*,#1289,.F.);
#1806 = ORIENTED_EDGE('',*,*,#1807,.T.);
#1807 = EDGE_CURVE('',#1290,#1281,#1808,.T.);
#1808 = B_SPLINE_CURVE_WITH_KNOTS('',8,(#1809,#1810,#1811,#1812,#1813,
    #1814,#1815,#1816,#1817,#1818,#1819,#1820,#1821,#1822,#1823,#1824,
    #1825,#1826,#1827,#1828,#1829,#1830,#1831,#1832,#1833,#1834,#1835,
    #1836,#1837,#1838,#1839,#1840,#1841,#1842,#1843,#1844,#1845,#1846,
    #1847,#1848,#1849,#1850,#1851,#1852,#1853,#1854,#1855,#1856,#1857,
    #1858,#1859,#1860,#1861,#1862,#1863,#1864,#1865,#1866,#1867,#1868,
    #1869,#1870,#1871,#1872,#1873),.UNSPECIFIED.,.T.,.F.,(9,7,7,7,7,7,7,
    7,7,9),(0.,0.11163853473,0.213141583041,0.297895874578,
    0.399424077917,0.501342209405,0.606717941592,0.696827032864,
    0.797003915305,1.),.UNSPECIFIED.);
#1809 = CARTESIAN_POINT('',(13.875,58.571428571429,0.464239211415));
#1810 = CARTESIAN_POINT('',(13.875,58.82181062893,0.464239211415));
#1811 = CARTESIAN_POINT('',(13.852073248522,59.071942379221,
    0.457273639121));
#1812 = CARTESIAN_POINT('',(13.806298107559,59.320513406489,
    0.443366368675));
#1813 = CARTESIAN_POINT('',(13.737489617224,59.566157341975,
    0.42277361575));
#1814 = CARTESIAN_POINT('',(13.645238622475,59.807359161873,
    0.395991242066));
#1815 = CARTESIAN_POINT('',(13.528946986962,60.042339852414,
    0.36378888596));
#1816 = CARTESIAN_POINT('',(13.387869636911,60.268906987832,
    0.327261326611));
#1817 = CARTESIAN_POINT('',(13.069612736649,60.680061006933,
    0.252088340937));
#1818 = CARTESIAN_POINT('',(12.89552507662,60.868334042717,
    0.213617918539));
#1819 = CARTESIAN_POINT('',(12.698367650043,61.045721045048,
    0.173688581137));
#1820 = CARTESIAN_POINT('',(12.478011046331,61.208612017949,
    0.133913932724));
#1821 = CARTESIAN_POINT('',(12.234761180606,61.353130082989,
    9.625270713125E-02));
#1822 = CARTESIAN_POINT('',(11.969420508098,61.475090333468,
    6.292606027717E-02));
#1823 = CARTESIAN_POINT('',(11.683420657371,61.569911496101,
    3.626204913434E-02));
#1824 = CARTESIAN_POINT('',(11.124917212552,61.684686871689,
    3.523996994942E-03));
#1825 = CARTESIAN_POINT('',(10.862100206621,61.713564855293,
    -4.979537738438E-03));
#1826 = CARTESIAN_POINT('',(10.595343872007,61.716830530798,
    -6.027127200993E-03));
#1827 = CARTESIAN_POINT('',(10.329687607453,61.693793588738,
    8.007337361906E-04));
#1828 = CARTESIAN_POINT('',(10.070186591949,61.645255927769,
    1.509384668934E-02));
#1829 = CARTESIAN_POINT('',(9.821635070513,61.573496329836,
    3.566187162778E-02));
#1830 = CARTESIAN_POINT('',(9.588312843895,61.482306892183,
    6.076339057391E-02));
#1831 = CARTESIAN_POINT('',(9.116762712646,61.251000509986,
    0.121632843215));
#1832 = CARTESIAN_POINT('',(8.882775037017,61.102844867318,
    0.159035331958));
#1833 = CARTESIAN_POINT('',(8.67188941065,60.937103284428,0.19848659599)
  );
#1834 = CARTESIAN_POINT('',(8.483703311487,60.757363972702,
    0.238105226665));
#1835 = CARTESIAN_POINT('',(8.317567246106,60.566496274013,
    0.276374558389));
#1836 = CARTESIAN_POINT('',(8.172747633809,60.366788266205,
    0.312114028757));
#1837 = CARTESIAN_POINT('',(8.048540149743,60.160044315977,
    0.344412014189));
#1838 = CARTESIAN_POINT('',(7.839781367878,59.734460594278,
    0.400852025501));
#1839 = CARTESIAN_POINT('',(7.753673540368,59.512089299976,
    0.425424420622));
#1840 = CARTESIAN_POINT('',(7.68703234939,59.282507027448,0.445242214077
    ));
#1841 = CARTESIAN_POINT('',(7.640546198215,59.047742394358,
    0.459441401264));
#1842 = CARTESIAN_POINT('',(7.614639831012,58.809857962418,
    0.467437729981));
#1843 = CARTESIAN_POINT('',(7.60949737528,58.570927298359,0.468977850315
    ));
#1844 = CARTESIAN_POINT('',(7.625065470993,58.33302315419,0.464150761679
    ));
#1845 = CARTESIAN_POINT('',(7.69822782857,57.855444507856,0.442202257759
    ));
#1846 = CARTESIAN_POINT('',(7.757371799936,57.61505406991,0.424626606802
    ));
#1847 = CARTESIAN_POINT('',(7.838602802609,57.378193761457,
    0.400937066264));
#1848 = CARTESIAN_POINT('',(7.942336823666,57.146197790915,
    0.371639885243));
#1849 = CARTESIAN_POINT('',(8.069213971677,56.920683754554,
    0.337468921174));
#1850 = CARTESIAN_POINT('',(8.220036533838,56.703680105921,
    0.299447554191));
#1851 = CARTESIAN_POINT('',(8.395682984761,56.49779665074,0.258960752105
    ));
#1852 = CARTESIAN_POINT('',(8.769110467272,56.142827359299,
    0.182623585124));
#1853 = CARTESIAN_POINT('',(8.95549420089,55.994115744154,0.147871870039
    ));
#1854 = CARTESIAN_POINT('',(9.154582508074,55.861809808849,
    0.114798565112));
#1855 = CARTESIAN_POINT('',(9.364661922963,55.747171663085,
    8.459931662218E-02));
#1856 = CARTESIAN_POINT('',(9.583891409803,55.651234184244,
    5.833231156175E-02));
#1857 = CARTESIAN_POINT('',(9.810334633525,55.574799746893,
    3.685186559779E-02));
#1858 = CARTESIAN_POINT('',(10.041985675622,55.518435480862,
    2.076633776991E-02));
#1859 = CARTESIAN_POINT('',(10.537824946182,55.442475698548,
    -1.081537490512E-03));
#1860 = CARTESIAN_POINT('',(10.804458244806,55.427430966423,
    -5.564562982591E-03));
#1861 = CARTESIAN_POINT('',(11.072084781686,55.438637359739,
    -2.313262161352E-03));
#1862 = CARTESIAN_POINT('',(11.335934906272,55.476009942669,
    8.721509616842E-03));
#1863 = CARTESIAN_POINT('',(11.591333947104,55.538141641731,
    2.68084783152E-02));
#1864 = CARTESIAN_POINT('',(11.833951649511,55.622312744453,
    5.05392128503E-02));
#1865 = CARTESIAN_POINT('',(12.060028615809,55.724456334317,
    7.808123810029E-02));
#1866 = CARTESIAN_POINT('',(12.685096478682,56.071397301396,
    0.167154248569));
#1867 = CARTESIAN_POINT('',(13.036796417333,56.36244330216,
    0.236465198318));
#1868 = CARTESIAN_POINT('',(13.322464452349,56.69172378707,
    0.305256973982));
#1869 = CARTESIAN_POINT('',(13.545833435846,57.046108465395,
    0.366029560335));
#1870 = CARTESIAN_POINT('',(13.710648227901,57.416577439992,
    0.414310086938));
#1871 = CARTESIAN_POINT('',(13.81987171867,57.79699715634,0.447489442963
    ));
#1872 = CARTESIAN_POINT('',(13.875,58.183175595141,0.464239211415));
#1873 = CARTESIAN_POINT('',(13.875,58.571428571429,0.464239211415));
#1874 = CYLINDRICAL_SURFACE('',#1875,3.125);
#1875 = AXIS2_PLACEMENT_3D('',#1876,#1877,#1878);
#1876 = CARTESIAN_POINT('',(10.75,58.571428571429,0.));
#1877 = DIRECTION('',(-0.,-0.,-1.));
#1878 = DIRECTION('',(1.,0.,0.));
#1879 = ADVANCED_FACE('',(#1880,#1888,#1893),#1898,.F.);
#1880 = FACE_BOUND('',#1881,.F.);
#1881 = EDGE_LOOP('',(#1882,#1883,#1884,#1885,#1886,#1887));
#1882 = ORIENTED_EDGE('',*,*,#1365,.T.);
#1883 = ORIENTED_EDGE('',*,*,#1356,.T.);
#1884 = ORIENTED_EDGE('',*,*,#1321,.F.);
#1885 = ORIENTED_EDGE('',*,*,#1392,.F.);
#1886 = ORIENTED_EDGE('',*,*,#1401,.F.);
#1887 = ORIENTED_EDGE('',*,*,#1419,.T.);
#1888 = FACE_BOUND('',#1889,.F.);
#1889 = EDGE_LOOP('',(#1890,#1891,#1892));
#1890 = ORIENTED_EDGE('',*,*,#1658,.T.);
#1891 = ORIENTED_EDGE('',*,*,#1807,.T.);
#1892 = ORIENTED_EDGE('',*,*,#1730,.T.);
#1893 = FACE_BOUND('',#1894,.F.);
#1894 = EDGE_LOOP('',(#1895,#1896,#1897));
#1895 = ORIENTED_EDGE('',*,*,#1433,.T.);
#1896 = ORIENTED_EDGE('',*,*,#1582,.T.);
#1897 = ORIENTED_EDGE('',*,*,#1505,.T.);
#1898 = CYLINDRICAL_SURFACE('',#1899,10.75);
#1899 = AXIS2_PLACEMENT_3D('',#1900,#1901,#1902);
#1900 = CARTESIAN_POINT('',(10.75,2.386979502944E-15,10.75));
#1901 = DIRECTION('',(0.,-1.,2.22044604925E-16));
#1902 = DIRECTION('',(1.,0.,0.));
#1903 = ( GEOMETRIC_REPRESENTATION_CONTEXT(3) 
GLOBAL_UNCERTAINTY_ASSIGNED_CONTEXT((#1907)) 
GLOBAL_UNIT_ASSIGNED_CONTEXT((#1904,#1905,#1906)) REPRESENTATION_CONTEXT
('Context #1','3D Context with UNIT and UNCERTAINTY') );
#1904 = ( LENGTH_UNIT() NAMED_UNIT(*) SI_UNIT(.MILLI.,.METRE.) );
#1905 = ( NAMED_UNIT(*) PLANE_ANGLE_UNIT() SI_UNIT($,.RADIAN.) );
#1906 = ( NAMED_UNIT(*) SI_UNIT($,.STERADIAN.) SOLID_ANGLE_UNIT() );
#1907 = UNCERTAINTY_MEASURE_WITH_UNIT(LENGTH_MEASURE(1.E-04),#1904,
  'distance_accuracy_value','confusion accuracy');
#1908 = PRODUCT_RELATED_PRODUCT_CATEGORY('part',$,(#7));
#1909 = MECHANICAL_DESIGN_GEOMETRIC_PRESENTATION_REPRESENTATION('',(
    #1910),#1903);
#1910 = STYLED_ITEM('color',(#1911),#15);
#1911 = PRESENTATION_STYLE_ASSIGNMENT((#1912,#1918));
#1912 = SURFACE_STYLE_USAGE(.BOTH.,#1913);
#1913 = SURFACE_SIDE_STYLE('',(#1914));
#1914 = SURFACE_STYLE_FILL_AREA(#1915);
#1915 = FILL_AREA_STYLE('',(#1916));
#1916 = FILL_AREA_STYLE_COLOUR('',#1917);
#1917 = COLOUR_RGB('',0.843137261657,0.360784317039,0.396078428884);
#1918 = CURVE_STYLE('',#1919,POSITIVE_LENGTH_MEASURE(0.1),#1920);
#1919 = DRAUGHTING_PRE_DEFINED_CURVE_FONT('continuous');
#1920 = COLOUR_RGB('',9.803921802644E-02,9.803921802644E-02,
  9.803921802644E-02);
ENDSEC;
END-ISO-10303-21;
